<?xml version="1.0" encoding="UTF-8" standalone="no"?>
<!DOCTYPE svg PUBLIC "-//W3C//DTD SVG 1.1//EN"
 "http://www.w3.org/Graphics/SVG/1.1/DTD/svg11.dtd">
<!-- Generated by graphviz version 2.43.0 (0)
 -->
<!-- Title: ReactionFlow Pages: 1 -->
<svg width="1160pt" height="1173pt"
 viewBox="0.00 0.00 1160.00 1173.00" xmlns="http://www.w3.org/2000/svg" xmlns:xlink="http://www.w3.org/1999/xlink">
<g id="graph0" class="graph" transform="scale(1 1) rotate(0) translate(4 1169)">
<title>ReactionFlow</title>
<polygon fill="white" stroke="transparent" points="-4,4 -4,-1169 1156,-1169 1156,4 -4,4"/>
<!-- node0 -->
<g id="node1" class="node">
<title>node0</title>
<polygon fill="lightblue" stroke="black" points="212.5,-543 158.5,-543 158.5,-507 212.5,-507 212.5,-543"/>
<text text-anchor="middle" x="185.5" y="-521.3" font-family="Times,serif" font-size="14.00">O1Fe5</text>
</g>
<!-- node1 -->
<g id="node2" class="node">
<title>node1</title>
<polygon fill="lightblue" stroke="black" points="338,-548 284,-548 284,-512 338,-512 338,-548"/>
<text text-anchor="middle" x="311" y="-526.3" font-family="Times,serif" font-size="14.00">O1Fe4</text>
</g>
<!-- node0&#45;&gt;node1 -->
<g id="edge1" class="edge">
<title>node0&#45;&gt;node1</title>
<path fill="none" stroke="black" stroke-width="2.1" d="M212.69,-526.06C230.46,-526.78 254.18,-527.74 273.75,-528.53"/>
<polygon fill="black" stroke="black" stroke-width="2.1" points="273.71,-532.03 283.85,-528.94 274,-525.04 273.71,-532.03"/>
<text text-anchor="middle" x="254.5" y="-531.8" font-family="Times,serif" font-size="14.00">3</text>
</g>
<!-- node1&#45;&gt;node0 -->
<g id="edge33" class="edge">
<title>node1&#45;&gt;node0</title>
<path fill="none" stroke="black" d="M283.88,-517.18C275.78,-513.83 266.7,-510.69 258,-509 246.31,-506.73 233.62,-508.26 222.21,-511.11"/>
<polygon fill="black" stroke="black" points="221.21,-507.76 212.57,-513.9 223.15,-514.48 221.21,-507.76"/>
<text text-anchor="middle" x="254.5" y="-512.8" font-family="Times,serif" font-size="14.00">1</text>
</g>
<!-- node2 -->
<g id="node3" class="node">
<title>node2</title>
<polygon fill="lightblue" stroke="black" points="220.5,-714 150.5,-714 150.5,-678 220.5,-678 220.5,-714"/>
<text text-anchor="middle" x="185.5" y="-692.3" font-family="Times,serif" font-size="14.00">H1O1Fe2</text>
</g>
<!-- node3 -->
<g id="node4" class="node">
<title>node3</title>
<polygon fill="lightblue" stroke="black" points="346,-787 276,-787 276,-751 346,-751 346,-787"/>
<text text-anchor="middle" x="311" y="-765.3" font-family="Times,serif" font-size="14.00">H1O1Fe3</text>
</g>
<!-- node2&#45;&gt;node3 -->
<g id="edge2" class="edge">
<title>node2&#45;&gt;node3</title>
<path fill="none" stroke="black" d="M217.03,-714.04C233.21,-723.61 253.27,-735.47 270.61,-745.72"/>
<polygon fill="black" stroke="black" points="269.01,-748.83 279.4,-750.91 272.57,-742.81 269.01,-748.83"/>
<text text-anchor="middle" x="254.5" y="-740.8" font-family="Times,serif" font-size="14.00">1</text>
</g>
<!-- node7 -->
<g id="node8" class="node">
<title>node7</title>
<polygon fill="lightblue" stroke="black" points="346,-731 276,-731 276,-695 346,-695 346,-731"/>
<text text-anchor="middle" x="311" y="-709.3" font-family="Times,serif" font-size="14.00">H1O1Fe1</text>
</g>
<!-- node2&#45;&gt;node7 -->
<g id="edge5" class="edge">
<title>node2&#45;&gt;node7</title>
<path fill="none" stroke="black" stroke-width="1.69" d="M220.85,-694.51C232.69,-694.52 245.98,-695.11 258,-697 260.66,-697.42 263.38,-697.94 266.1,-698.55"/>
<polygon fill="black" stroke="black" stroke-width="1.69" points="265.37,-701.97 275.92,-701.01 267.07,-695.18 265.37,-701.97"/>
<text text-anchor="middle" x="254.5" y="-700.8" font-family="Times,serif" font-size="14.00">2</text>
</g>
<!-- node12 -->
<g id="node13" class="node">
<title>node12</title>
<polygon fill="lightblue" stroke="black" points="338,-613 284,-613 284,-577 338,-577 338,-613"/>
<text text-anchor="middle" x="311" y="-591.3" font-family="Times,serif" font-size="14.00">H1O1</text>
</g>
<!-- node2&#45;&gt;node12 -->
<g id="edge52" class="edge">
<title>node2&#45;&gt;node12</title>
<path fill="none" stroke="black" stroke-width="1.69" d="M203.5,-677.99C216.07,-665.1 233.9,-647.68 251,-634 258.53,-627.97 267,-621.97 275.12,-616.55"/>
<polygon fill="black" stroke="black" stroke-width="1.69" points="277.28,-619.32 283.73,-610.91 273.45,-613.46 277.28,-619.32"/>
<text text-anchor="middle" x="254.5" y="-637.8" font-family="Times,serif" font-size="14.00">2</text>
</g>
<!-- node3&#45;&gt;node2 -->
<g id="edge34" class="edge">
<title>node3&#45;&gt;node2</title>
<path fill="none" stroke="black" stroke-width="1.69" d="M275.84,-764.68C267.41,-762.76 258.62,-760 251,-756 234.89,-747.55 219.83,-734 208.31,-721.91"/>
<polygon fill="black" stroke="black" stroke-width="1.69" points="210.62,-719.25 201.29,-714.25 205.47,-723.98 210.62,-719.25"/>
<text text-anchor="middle" x="254.5" y="-762.8" font-family="Times,serif" font-size="14.00">2</text>
</g>
<!-- node4 -->
<g id="node5" class="node">
<title>node4</title>
<polygon fill="lightblue" stroke="black" points="563,-615 493,-615 493,-579 563,-579 563,-615"/>
<text text-anchor="middle" x="528" y="-593.3" font-family="Times,serif" font-size="14.00">H3O2Fe2</text>
</g>
<!-- node4&#45;&gt;node2 -->
<g id="edge6" class="edge">
<title>node4&#45;&gt;node2</title>
<path fill="none" stroke="black" d="M517.55,-615.03C508.73,-629.79 494.06,-649.69 475,-659 430.65,-680.67 413.07,-657.58 364,-663 318.21,-668.05 266.48,-678.18 230.73,-685.89"/>
<polygon fill="black" stroke="black" points="229.66,-682.55 220.64,-688.1 231.15,-689.39 229.66,-682.55"/>
<text text-anchor="middle" x="371" y="-666.8" font-family="Times,serif" font-size="14.00">1</text>
</g>
<!-- node5 -->
<g id="node6" class="node">
<title>node5</title>
<polygon fill="lightblue" stroke="black" points="450,-460 396,-460 396,-424 450,-424 450,-460"/>
<text text-anchor="middle" x="423" y="-438.3" font-family="Times,serif" font-size="14.00">H2O1</text>
</g>
<!-- node4&#45;&gt;node5 -->
<g id="edge3" class="edge">
<title>node4&#45;&gt;node5</title>
<path fill="none" stroke="black" stroke-width="1.69" d="M505.84,-578.99C501.33,-574.65 496.79,-569.85 493,-565 469.33,-534.72 448.75,-495.34 436.37,-469.39"/>
<polygon fill="black" stroke="black" stroke-width="1.69" points="439.45,-467.72 432.03,-460.16 433.11,-470.7 439.45,-467.72"/>
<text text-anchor="middle" x="471.5" y="-540.8" font-family="Times,serif" font-size="14.00">2</text>
</g>
<!-- node5&#45;&gt;node4 -->
<g id="edge43" class="edge">
<title>node5&#45;&gt;node4</title>
<path fill="none" stroke="black" d="M427.54,-460.25C432.92,-484.25 445.06,-526.81 468,-556 472.93,-562.28 479.08,-567.98 485.54,-573"/>
<polygon fill="black" stroke="black" points="483.65,-575.95 493.8,-578.98 487.76,-570.28 483.65,-575.95"/>
<text text-anchor="middle" x="471.5" y="-567.8" font-family="Times,serif" font-size="14.00">1</text>
</g>
<!-- node8 -->
<g id="node9" class="node">
<title>node8</title>
<polygon fill="lightblue" stroke="black" points="667,-495 613,-495 613,-459 667,-459 667,-495"/>
<text text-anchor="middle" x="640" y="-473.3" font-family="Times,serif" font-size="14.00">H4O2</text>
</g>
<!-- node5&#45;&gt;node8 -->
<g id="edge9" class="edge">
<title>node5&#45;&gt;node8</title>
<path fill="none" stroke="black" stroke-width="4.66" d="M446.45,-460.02C459.27,-469.14 476.12,-479.27 493,-484 529.39,-494.2 572.86,-490.17 602.85,-485"/>
<polygon fill="black" stroke="black" stroke-width="4.66" points="603.77,-488.98 612.86,-483.15 602.28,-480.96 603.77,-488.98"/>
<text text-anchor="middle" x="528" y="-494.8" font-family="Times,serif" font-size="14.00">39</text>
</g>
<!-- node11 -->
<g id="node12" class="node">
<title>node11</title>
<polygon fill="lightblue" stroke="black" points="764,-279 710,-279 710,-243 764,-243 764,-279"/>
<text text-anchor="middle" x="737" y="-257.3" font-family="Times,serif" font-size="14.00">H5O2</text>
</g>
<!-- node5&#45;&gt;node11 -->
<g id="edge14" class="edge">
<title>node5&#45;&gt;node11</title>
<path fill="none" stroke="black" stroke-width="4.47" d="M427.16,-423.7C432.01,-401.22 443.42,-363.45 468,-342 537.31,-281.5 579.3,-312.79 667,-285 677.92,-281.54 689.73,-277.53 700.44,-273.79"/>
<polygon fill="black" stroke="black" stroke-width="4.47" points="701.77,-277.47 709.9,-270.46 699.17,-270.1 701.77,-277.47"/>
<text text-anchor="middle" x="588" y="-303.8" font-family="Times,serif" font-size="14.00">32</text>
</g>
<!-- node5&#45;&gt;node12 -->
<g id="edge11" class="edge">
<title>node5&#45;&gt;node12</title>
<path fill="none" stroke="black" stroke-width="4.22" d="M411.19,-460.09C397.1,-483.22 371.28,-524.22 346,-557 342.84,-561.1 339.34,-565.31 335.84,-569.37"/>
<polygon fill="black" stroke="black" stroke-width="4.22" points="333.03,-566.98 329.16,-576.91 338.55,-571.87 333.03,-566.98"/>
<text text-anchor="middle" x="371" y="-533.8" font-family="Times,serif" font-size="14.00">25</text>
</g>
<!-- node13 -->
<g id="node14" class="node">
<title>node13</title>
<polygon fill="lightblue" stroke="black" points="861,-462 807,-462 807,-426 861,-426 861,-462"/>
<text text-anchor="middle" x="834" y="-440.3" font-family="Times,serif" font-size="14.00">H3O1</text>
</g>
<!-- node5&#45;&gt;node13 -->
<g id="edge13" class="edge">
<title>node5&#45;&gt;node13</title>
<path fill="none" stroke="black" stroke-width="4" d="M425.48,-460.44C431.7,-531.69 458.61,-785 527,-785 527,-785 527,-785 738,-785 802.7,-785 825.23,-554.34 831.2,-472.43"/>
<polygon fill="black" stroke="black" stroke-width="4" points="834.7,-472.55 831.9,-462.33 827.71,-472.07 834.7,-472.55"/>
<text text-anchor="middle" x="640" y="-788.8" font-family="Times,serif" font-size="14.00">20</text>
</g>
<!-- node14 -->
<g id="node15" class="node">
<title>node14</title>
<polygon fill="lightblue" stroke="black" points="555,-692 501,-692 501,-656 555,-656 555,-692"/>
<text text-anchor="middle" x="528" y="-670.3" font-family="Times,serif" font-size="14.00">H3O2</text>
</g>
<!-- node5&#45;&gt;node14 -->
<g id="edge15" class="edge">
<title>node5&#45;&gt;node14</title>
<path fill="none" stroke="black" stroke-width="2.1" d="M424.06,-460.15C425,-496.03 431.37,-577.27 468,-632 474.2,-641.26 483.18,-649.15 492.28,-655.5"/>
<polygon fill="black" stroke="black" stroke-width="2.1" points="490.65,-658.61 500.94,-661.11 494.45,-652.74 490.65,-658.61"/>
<text text-anchor="middle" x="471.5" y="-643.8" font-family="Times,serif" font-size="14.00">3</text>
</g>
<!-- node15 -->
<g id="node16" class="node">
<title>node15</title>
<polygon fill="lightblue" stroke="black" points="563,-421 493,-421 493,-385 563,-385 563,-421"/>
<text text-anchor="middle" x="528" y="-399.3" font-family="Times,serif" font-size="14.00">H2O1Fe1</text>
</g>
<!-- node5&#45;&gt;node15 -->
<g id="edge16" class="edge">
<title>node5&#45;&gt;node15</title>
<path fill="none" stroke="black" stroke-width="2.39" d="M450.26,-432.06C460.22,-428.29 471.84,-423.88 483,-419.66"/>
<polygon fill="black" stroke="black" stroke-width="2.39" points="484.5,-422.83 492.62,-416.02 482.03,-416.29 484.5,-422.83"/>
<text text-anchor="middle" x="471.5" y="-428.8" font-family="Times,serif" font-size="14.00">4</text>
</g>
<!-- node17 -->
<g id="node18" class="node">
<title>node17</title>
<polygon fill="lightblue" stroke="black" points="861,-170 807,-170 807,-134 861,-134 861,-170"/>
<text text-anchor="middle" x="834" y="-148.3" font-family="Times,serif" font-size="14.00">H6O3</text>
</g>
<!-- node5&#45;&gt;node17 -->
<g id="edge22" class="edge">
<title>node5&#45;&gt;node17</title>
<path fill="none" stroke="black" d="M424.5,-423.85C426.46,-363.68 435.19,-171.8 468,-121 484.79,-95 496.05,-84 527,-84 527,-84 527,-84 738,-84 768.13,-84 795.28,-106.89 812.76,-126.11"/>
<polygon fill="black" stroke="black" points="810.22,-128.52 819.42,-133.78 815.5,-123.93 810.22,-128.52"/>
<text text-anchor="middle" x="640" y="-87.8" font-family="Times,serif" font-size="14.00">1</text>
</g>
<!-- node18 -->
<g id="node19" class="node">
<title>node18</title>
<polygon fill="lightblue" stroke="black" points="555,-291 501,-291 501,-255 555,-255 555,-291"/>
<text text-anchor="middle" x="528" y="-269.3" font-family="Times,serif" font-size="14.00">H4O3</text>
</g>
<!-- node5&#45;&gt;node18 -->
<g id="edge50" class="edge">
<title>node5&#45;&gt;node18</title>
<path fill="none" stroke="black" d="M424.54,-423.82C426.41,-393.5 434.4,-332.36 468,-296 474.23,-289.25 482.68,-284.46 491.24,-281.06"/>
<polygon fill="black" stroke="black" points="492.49,-284.33 500.83,-277.79 490.24,-277.71 492.49,-284.33"/>
<text text-anchor="middle" x="471.5" y="-299.8" font-family="Times,serif" font-size="14.00">1</text>
</g>
<!-- node32 -->
<g id="node33" class="node">
<title>node32</title>
<polygon fill="lightblue" stroke="black" points="958,-304 904,-304 904,-268 958,-268 958,-304"/>
<text text-anchor="middle" x="931" y="-282.3" font-family="Times,serif" font-size="14.00">H7O3</text>
</g>
<!-- node5&#45;&gt;node32 -->
<g id="edge46" class="edge">
<title>node5&#45;&gt;node32</title>
<path fill="none" stroke="black" stroke-width="1.69" d="M425.02,-423.83C428.68,-362.66 442.28,-164.74 468,-107 484.42,-70.14 486.65,-38 527,-38 527,-38 527,-38 835,-38 881.62,-38 913.87,-192.78 925.36,-257.78"/>
<polygon fill="black" stroke="black" stroke-width="1.69" points="921.93,-258.51 927.08,-267.76 928.83,-257.31 921.93,-258.51"/>
<text text-anchor="middle" x="688.5" y="-41.8" font-family="Times,serif" font-size="14.00">2</text>
</g>
<!-- node37 -->
<g id="node38" class="node">
<title>node37</title>
<polygon fill="lightblue" stroke="black" points="555,-237 501,-237 501,-201 555,-201 555,-237"/>
<text text-anchor="middle" x="528" y="-215.3" font-family="Times,serif" font-size="14.00">H2</text>
</g>
<!-- node5&#45;&gt;node37 -->
<g id="edge62" class="edge">
<title>node5&#45;&gt;node37</title>
<path fill="none" stroke="black" d="M425.5,-423.99C429.6,-379.02 442.44,-263.42 468,-236 474.06,-229.5 482.43,-225.43 490.97,-222.9"/>
<polygon fill="black" stroke="black" points="491.98,-226.25 500.93,-220.58 490.4,-219.44 491.98,-226.25"/>
<text text-anchor="middle" x="471.5" y="-239.8" font-family="Times,serif" font-size="14.00">1</text>
</g>
<!-- node6 -->
<g id="node7" class="node">
<title>node6</title>
<polygon fill="lightblue" stroke="black" points="82.5,-714 12.5,-714 12.5,-678 82.5,-678 82.5,-714"/>
<text text-anchor="middle" x="47.5" y="-692.3" font-family="Times,serif" font-size="14.00">H1O1Fe5</text>
</g>
<!-- node6&#45;&gt;node2 -->
<g id="edge4" class="edge">
<title>node6&#45;&gt;node2</title>
<path fill="none" stroke="black" d="M82.82,-696C100.21,-696 121.54,-696 140.17,-696"/>
<polygon fill="black" stroke="black" points="140.19,-699.5 150.19,-696 140.19,-692.5 140.19,-699.5"/>
<text text-anchor="middle" x="116.5" y="-699.8" font-family="Times,serif" font-size="14.00">1</text>
</g>
<!-- node7&#45;&gt;node2 -->
<g id="edge51" class="edge">
<title>node7&#45;&gt;node2</title>
<path fill="none" stroke="black" stroke-width="1.69" d="M275.9,-713.73C267.72,-713.55 259.02,-713.05 251,-712 244.31,-711.13 237.32,-709.82 230.5,-708.32"/>
<polygon fill="black" stroke="black" stroke-width="1.69" points="231.24,-704.89 220.7,-706.01 229.64,-711.71 231.24,-704.89"/>
<text text-anchor="middle" x="254.5" y="-716.8" font-family="Times,serif" font-size="14.00">2</text>
</g>
<!-- node8&#45;&gt;node5 -->
<g id="edge7" class="edge">
<title>node8&#45;&gt;node5</title>
<path fill="none" stroke="black" stroke-width="4.81" d="M612.76,-472.73C574.6,-466.52 503.66,-454.97 460.45,-447.93"/>
<polygon fill="black" stroke="black" stroke-width="4.81" points="460.91,-443.75 450.36,-446.29 459.56,-452.05 460.91,-443.75"/>
<text text-anchor="middle" x="528" y="-468.8" font-family="Times,serif" font-size="14.00">45</text>
</g>
<!-- node8&#45;&gt;node11 -->
<g id="edge18" class="edge">
<title>node8&#45;&gt;node11</title>
<path fill="none" stroke="black" stroke-width="1.69" d="M653.58,-458.98C664.75,-442.4 680.96,-416.84 692,-393 708.02,-358.4 721.01,-316.29 728.62,-289.08"/>
<polygon fill="black" stroke="black" stroke-width="1.69" points="732,-290 731.27,-279.43 725.25,-288.15 732,-290"/>
<text text-anchor="middle" x="688.5" y="-408.8" font-family="Times,serif" font-size="14.00">2</text>
</g>
<!-- node9 -->
<g id="node10" class="node">
<title>node9</title>
<polygon fill="lightblue" stroke="black" points="1055,-253 1001,-253 1001,-217 1055,-217 1055,-253"/>
<text text-anchor="middle" x="1028" y="-231.3" font-family="Times,serif" font-size="14.00">H9O4</text>
</g>
<!-- node10 -->
<g id="node11" class="node">
<title>node10</title>
<polygon fill="lightblue" stroke="black" points="1152,-253 1098,-253 1098,-217 1152,-217 1152,-253"/>
<text text-anchor="middle" x="1125" y="-231.3" font-family="Times,serif" font-size="14.00">H8O4</text>
</g>
<!-- node9&#45;&gt;node10 -->
<g id="edge8" class="edge">
<title>node9&#45;&gt;node10</title>
<path fill="none" stroke="black" d="M1055.21,-235C1065.28,-235 1076.96,-235 1087.81,-235"/>
<polygon fill="black" stroke="black" points="1087.87,-238.5 1097.87,-235 1087.87,-231.5 1087.87,-238.5"/>
<text text-anchor="middle" x="1076.5" y="-238.8" font-family="Times,serif" font-size="14.00">1</text>
</g>
<!-- node9&#45;&gt;node11 -->
<g id="edge28" class="edge">
<title>node9&#45;&gt;node11</title>
<path fill="none" stroke="black" d="M1000.83,-236.34C955.94,-238.79 861.44,-244.62 782,-254 779.45,-254.3 776.81,-254.64 774.16,-255.01"/>
<polygon fill="black" stroke="black" points="773.39,-251.58 764.01,-256.51 774.41,-258.51 773.39,-251.58"/>
<text text-anchor="middle" x="882.5" y="-248.8" font-family="Times,serif" font-size="14.00">1</text>
</g>
<!-- node10&#45;&gt;node8 -->
<g id="edge24" class="edge">
<title>node10&#45;&gt;node8</title>
<path fill="none" stroke="black" d="M1123.1,-253.04C1119.03,-325.18 1099.31,-589 1029,-589 736,-589 736,-589 736,-589 713.86,-589 678.04,-537.45 657.29,-504.3"/>
<polygon fill="black" stroke="black" points="660.08,-502.17 651.86,-495.49 654.13,-505.84 660.08,-502.17"/>
<text text-anchor="middle" x="882.5" y="-592.8" font-family="Times,serif" font-size="14.00">1</text>
</g>
<!-- node10&#45;&gt;node11 -->
<g id="edge10" class="edge">
<title>node10&#45;&gt;node11</title>
<path fill="none" stroke="black" d="M1120.75,-216.95C1110.35,-161.92 1075.76,0 1029,0 833,0 833,0 833,0 783.91,0 752.81,-165.1 742.14,-232.68"/>
<polygon fill="black" stroke="black" points="738.67,-232.23 740.6,-242.65 745.59,-233.3 738.67,-232.23"/>
<text text-anchor="middle" x="931" y="-3.8" font-family="Times,serif" font-size="14.00">1</text>
</g>
<!-- node11&#45;&gt;node5 -->
<g id="edge38" class="edge">
<title>node11&#45;&gt;node5</title>
<path fill="none" stroke="black" stroke-width="3.83" d="M712.07,-242.99C667.12,-211.55 567.87,-153.47 493,-192 453.06,-212.55 433.46,-352.93 426.76,-413.86"/>
<polygon fill="black" stroke="black" stroke-width="3.83" points="423.27,-413.63 425.69,-423.94 430.23,-414.36 423.27,-413.63"/>
<text text-anchor="middle" x="588" y="-189.8" font-family="Times,serif" font-size="14.00">17</text>
</g>
<!-- node11&#45;&gt;node13 -->
<g id="edge40" class="edge">
<title>node11&#45;&gt;node13</title>
<path fill="none" stroke="black" stroke-width="1.69" d="M753.77,-279.09C764.7,-292.27 779.01,-310.91 789,-329 804.57,-357.2 817.06,-392.05 824.69,-415.95"/>
<polygon fill="black" stroke="black" stroke-width="1.69" points="821.44,-417.28 827.76,-425.78 828.12,-415.19 821.44,-417.28"/>
<text text-anchor="middle" x="785.5" y="-332.8" font-family="Times,serif" font-size="14.00">2</text>
</g>
<!-- node11&#45;&gt;node17 -->
<g id="edge42" class="edge">
<title>node11&#45;&gt;node17</title>
<path fill="none" stroke="black" d="M752.38,-242.76C760.84,-232.18 771.84,-218.68 782,-207 790.54,-197.17 800.2,-186.63 808.78,-177.43"/>
<polygon fill="black" stroke="black" points="811.41,-179.75 815.7,-170.07 806.31,-174.96 811.41,-179.75"/>
<text text-anchor="middle" x="785.5" y="-210.8" font-family="Times,serif" font-size="14.00">1</text>
</g>
<!-- node11&#45;&gt;node32 -->
<g id="edge55" class="edge">
<title>node11&#45;&gt;node32</title>
<path fill="none" stroke="black" stroke-width="2.39" d="M764.14,-258.4C789.2,-256.52 827.98,-255.2 861,-261 872.03,-262.94 883.62,-266.49 894.09,-270.32"/>
<polygon fill="black" stroke="black" stroke-width="2.39" points="893.13,-273.71 903.72,-274.04 895.65,-267.18 893.13,-273.71"/>
<text text-anchor="middle" x="834" y="-264.8" font-family="Times,serif" font-size="14.00">4</text>
</g>
<!-- node12&#45;&gt;node2 -->
<g id="edge60" class="edge">
<title>node12&#45;&gt;node2</title>
<path fill="none" stroke="black" d="M283.76,-598.31C272.93,-600.6 260.68,-604.47 251,-611 229.22,-625.68 211.78,-650.18 200.55,-669.11"/>
<polygon fill="black" stroke="black" points="197.46,-667.47 195.55,-677.89 203.54,-670.94 197.46,-667.47"/>
<text text-anchor="middle" x="254.5" y="-614.8" font-family="Times,serif" font-size="14.00">1</text>
</g>
<!-- node12&#45;&gt;node5 -->
<g id="edge12" class="edge">
<title>node12&#45;&gt;node5</title>
<path fill="none" stroke="black" stroke-width="4.26" d="M331.12,-576.97C336.55,-571.03 342.05,-564.12 346,-557 359.91,-531.91 348.84,-519.36 364,-495 370.46,-484.61 379.52,-474.99 388.56,-466.88"/>
<polygon fill="black" stroke="black" stroke-width="4.26" points="391.25,-469.49 396.43,-460.16 386.41,-463.82 391.25,-469.49"/>
<text text-anchor="middle" x="371" y="-498.8" font-family="Times,serif" font-size="14.00">26</text>
</g>
<!-- node13&#45;&gt;node5 -->
<g id="edge17" class="edge">
<title>node13&#45;&gt;node5</title>
<path fill="none" stroke="black" stroke-width="3.08" d="M826.53,-462.15C814.36,-492.68 784.95,-551 738,-551 587,-551 587,-551 587,-551 527.69,-551 473.61,-500.51 445.11,-468.26"/>
<polygon fill="black" stroke="black" stroke-width="3.08" points="447.6,-465.79 438.43,-460.49 442.3,-470.35 447.6,-465.79"/>
<text text-anchor="middle" x="640" y="-554.8" font-family="Times,serif" font-size="14.00">8</text>
</g>
<!-- node13&#45;&gt;node8 -->
<g id="edge56" class="edge">
<title>node13&#45;&gt;node8</title>
<path fill="none" stroke="black" d="M806.72,-448.52C773.21,-454.28 715.1,-464.26 677.36,-470.75"/>
<polygon fill="black" stroke="black" points="676.56,-467.34 667.29,-472.48 677.74,-474.24 676.56,-467.34"/>
<text text-anchor="middle" x="737" y="-468.8" font-family="Times,serif" font-size="14.00">1</text>
</g>
<!-- node13&#45;&gt;node11 -->
<g id="edge39" class="edge">
<title>node13&#45;&gt;node11</title>
<path fill="none" stroke="black" stroke-width="3.08" d="M823.58,-425.86C806.82,-393.57 771.74,-326 752.1,-288.16"/>
<polygon fill="black" stroke="black" stroke-width="3.08" points="755.17,-286.48 747.46,-279.22 748.96,-289.7 755.17,-286.48"/>
<text text-anchor="middle" x="785.5" y="-361.8" font-family="Times,serif" font-size="14.00">8</text>
</g>
<!-- node13&#45;&gt;node32 -->
<g id="edge54" class="edge">
<title>node13&#45;&gt;node32</title>
<path fill="none" stroke="black" stroke-width="1.69" d="M861.26,-426.07C870.04,-419.07 879.29,-410.44 886,-401 904.96,-374.32 916.98,-338.41 923.58,-313.86"/>
<polygon fill="black" stroke="black" stroke-width="1.69" points="926.99,-314.65 926.08,-304.1 920.21,-312.91 926.99,-314.65"/>
<text text-anchor="middle" x="882.5" y="-413.8" font-family="Times,serif" font-size="14.00">2</text>
</g>
<!-- node14&#45;&gt;node5 -->
<g id="edge20" class="edge">
<title>node14&#45;&gt;node5</title>
<path fill="none" stroke="black" stroke-width="2.39" d="M514.19,-655.62C507.72,-646.24 499.82,-634.59 493,-624 481.44,-606.06 476.8,-602.44 468,-583 450.95,-545.34 437.93,-499.2 430.62,-470.19"/>
<polygon fill="black" stroke="black" stroke-width="2.39" points="433.98,-469.2 428.19,-460.33 427.18,-470.87 433.98,-469.2"/>
<text text-anchor="middle" x="471.5" y="-600.8" font-family="Times,serif" font-size="14.00">4</text>
</g>
<!-- node14&#45;&gt;node8 -->
<g id="edge58" class="edge">
<title>node14&#45;&gt;node8</title>
<path fill="none" stroke="black" d="M542.13,-655.82C548.68,-646.49 556.55,-634.82 563,-624 575.99,-602.19 607.26,-540.45 625.38,-504.29"/>
<polygon fill="black" stroke="black" points="628.56,-505.77 629.9,-495.26 622.3,-502.64 628.56,-505.77"/>
<text text-anchor="middle" x="588" y="-593.8" font-family="Times,serif" font-size="14.00">1</text>
</g>
<!-- node14&#45;&gt;node12 -->
<g id="edge19" class="edge">
<title>node14&#45;&gt;node12</title>
<path fill="none" stroke="black" d="M500.88,-686.82C492.78,-690.17 483.7,-693.31 475,-695 426.24,-704.47 405.6,-709.15 364,-682 342.82,-668.18 329.03,-642.46 321.01,-622.55"/>
<polygon fill="black" stroke="black" points="324.23,-621.17 317.43,-613.05 317.68,-623.64 324.23,-621.17"/>
<text text-anchor="middle" x="423" y="-706.8" font-family="Times,serif" font-size="14.00">1</text>
</g>
<!-- node20 -->
<g id="node21" class="node">
<title>node20</title>
<polygon fill="lightblue" stroke="black" points="667,-730 613,-730 613,-694 667,-694 667,-730"/>
<text text-anchor="middle" x="640" y="-708.3" font-family="Times,serif" font-size="14.00">H5O3</text>
</g>
<!-- node14&#45;&gt;node20 -->
<g id="edge47" class="edge">
<title>node14&#45;&gt;node20</title>
<path fill="none" stroke="black" stroke-width="1.69" d="M555.07,-683.01C569.35,-687.94 587.27,-694.13 602.87,-699.52"/>
<polygon fill="black" stroke="black" stroke-width="1.69" points="602.14,-702.97 612.74,-702.93 604.43,-696.35 602.14,-702.97"/>
<text text-anchor="middle" x="588" y="-700.8" font-family="Times,serif" font-size="14.00">2</text>
</g>
<!-- node15&#45;&gt;node5 -->
<g id="edge36" class="edge">
<title>node15&#45;&gt;node5</title>
<path fill="none" stroke="black" d="M492.85,-400.36C484.5,-400.73 475.75,-402.02 468,-405 460.83,-407.75 453.99,-412.2 447.93,-417.07"/>
<polygon fill="black" stroke="black" points="445.41,-414.63 440.2,-423.85 450.02,-419.89 445.41,-414.63"/>
<text text-anchor="middle" x="471.5" y="-408.8" font-family="Times,serif" font-size="14.00">1</text>
</g>
<!-- node16 -->
<g id="node17" class="node">
<title>node16</title>
<polygon fill="lightblue" stroke="black" points="338,-841 284,-841 284,-805 338,-805 338,-841"/>
<text text-anchor="middle" x="311" y="-819.3" font-family="Times,serif" font-size="14.00">H7O4</text>
</g>
<!-- node16&#45;&gt;node5 -->
<g id="edge27" class="edge">
<title>node16&#45;&gt;node5</title>
<path fill="none" stroke="black" d="M338.23,-805.11C341.14,-802.32 343.83,-799.26 346,-796 349.64,-790.52 376.52,-688.41 378,-682 395.6,-605.97 410.66,-515.07 417.71,-470.09"/>
<polygon fill="black" stroke="black" points="421.18,-470.6 419.25,-460.18 414.26,-469.52 421.18,-470.6"/>
<text text-anchor="middle" x="371" y="-736.8" font-family="Times,serif" font-size="14.00">1</text>
</g>
<!-- node16&#45;&gt;node14 -->
<g id="edge21" class="edge">
<title>node16&#45;&gt;node14</title>
<path fill="none" stroke="black" d="M338.36,-804.73C377.07,-777.9 449.34,-727.82 492.31,-698.04"/>
<polygon fill="black" stroke="black" points="494.53,-700.76 500.76,-692.19 490.54,-695.01 494.53,-700.76"/>
<text text-anchor="middle" x="423" y="-767.8" font-family="Times,serif" font-size="14.00">1</text>
</g>
<!-- node16&#45;&gt;node20 -->
<g id="edge26" class="edge">
<title>node16&#45;&gt;node20</title>
<path fill="none" stroke="black" d="M338.03,-821.9C370.74,-819.9 428.25,-814.33 475,-799 522.31,-783.48 572.24,-755.01 604.4,-734.87"/>
<polygon fill="black" stroke="black" points="606.41,-737.74 612.98,-729.43 602.66,-731.83 606.41,-737.74"/>
<text text-anchor="middle" x="471.5" y="-805.8" font-family="Times,serif" font-size="14.00">1</text>
</g>
<!-- node17&#45;&gt;node5 -->
<g id="edge45" class="edge">
<title>node17&#45;&gt;node5</title>
<path fill="none" stroke="black" d="M806.61,-144.69C787.67,-140.08 761.46,-135 738,-135 527,-135 527,-135 527,-135 526.38,-135 472.09,-198.95 468,-208 436.62,-277.42 427.62,-368.17 425.04,-413.55"/>
<polygon fill="black" stroke="black" points="421.53,-413.65 424.52,-423.82 428.52,-414.01 421.53,-413.65"/>
<text text-anchor="middle" x="640" y="-138.8" font-family="Times,serif" font-size="14.00">1</text>
</g>
<!-- node17&#45;&gt;node11 -->
<g id="edge44" class="edge">
<title>node17&#45;&gt;node11</title>
<path fill="none" stroke="black" stroke-width="1.69" d="M806.97,-163.24C798.31,-167.86 789.08,-173.82 782,-181 767.21,-196 755.92,-216.99 748.48,-233.71"/>
<polygon fill="black" stroke="black" stroke-width="1.69" points="745.23,-232.4 744.54,-242.98 751.67,-235.14 745.23,-232.4"/>
<text text-anchor="middle" x="785.5" y="-184.8" font-family="Times,serif" font-size="14.00">2</text>
</g>
<!-- node18&#45;&gt;node5 -->
<g id="edge23" class="edge">
<title>node18&#45;&gt;node5</title>
<path fill="none" stroke="black" stroke-width="2.39" d="M500.82,-257.14C489.75,-252.62 477.29,-250.67 468,-258 443.78,-277.11 431.41,-367.26 426.54,-413.9"/>
<polygon fill="black" stroke="black" stroke-width="2.39" points="423.05,-413.65 425.54,-423.95 430.02,-414.35 423.05,-413.65"/>
<text text-anchor="middle" x="471.5" y="-261.8" font-family="Times,serif" font-size="14.00">4</text>
</g>
<!-- node19 -->
<g id="node20" class="node">
<title>node19</title>
<polygon fill="lightblue" stroke="black" points="667,-276 613,-276 613,-240 667,-240 667,-276"/>
<text text-anchor="middle" x="640" y="-254.3" font-family="Times,serif" font-size="14.00">H2O2</text>
</g>
<!-- node18&#45;&gt;node19 -->
<g id="edge25" class="edge">
<title>node18&#45;&gt;node19</title>
<path fill="none" stroke="black" d="M555.07,-269.45C569.21,-267.52 586.92,-265.1 602.43,-262.99"/>
<polygon fill="black" stroke="black" points="603.3,-266.4 612.74,-261.58 602.36,-259.46 603.3,-266.4"/>
<text text-anchor="middle" x="588" y="-269.8" font-family="Times,serif" font-size="14.00">1</text>
</g>
<!-- node19&#45;&gt;node18 -->
<g id="edge49" class="edge">
<title>node19&#45;&gt;node18</title>
<path fill="none" stroke="black" d="M612.93,-247.65C602.91,-244.97 591.39,-243.46 581,-246 575.3,-247.39 569.53,-249.52 564.01,-252"/>
<polygon fill="black" stroke="black" points="562.46,-248.86 555.02,-256.4 565.54,-255.15 562.46,-248.86"/>
<text text-anchor="middle" x="588" y="-249.8" font-family="Times,serif" font-size="14.00">1</text>
</g>
<!-- node20&#45;&gt;node14 -->
<g id="edge57" class="edge">
<title>node20&#45;&gt;node14</title>
<path fill="none" stroke="black" stroke-width="1.69" d="M623.76,-694C616.04,-686.27 605.97,-678.08 595,-674 585.67,-670.53 575.08,-669.41 565.15,-669.46"/>
<polygon fill="black" stroke="black" stroke-width="1.69" points="564.98,-665.96 555.13,-669.87 565.27,-672.95 564.98,-665.96"/>
<text text-anchor="middle" x="588" y="-677.8" font-family="Times,serif" font-size="14.00">2</text>
</g>
<!-- node21 -->
<g id="node22" class="node">
<title>node21</title>
<polygon fill="lightblue" stroke="black" points="95,-805 0,-805 0,-769 95,-769 95,-805"/>
<text text-anchor="middle" x="47.5" y="-783.3" font-family="Times,serif" font-size="14.00">C35H21O2N2</text>
</g>
<!-- node22 -->
<g id="node23" class="node">
<title>node22</title>
<polygon fill="lightblue" stroke="black" points="233,-805 138,-805 138,-769 233,-769 233,-805"/>
<text text-anchor="middle" x="185.5" y="-783.3" font-family="Times,serif" font-size="14.00">C35H21O3N2</text>
</g>
<!-- node21&#45;&gt;node22 -->
<g id="edge29" class="edge">
<title>node21&#45;&gt;node22</title>
<path fill="none" stroke="black" d="M95.3,-787C105.67,-787 116.76,-787 127.48,-787"/>
<polygon fill="black" stroke="black" points="127.61,-790.5 137.61,-787 127.61,-783.5 127.61,-790.5"/>
<text text-anchor="middle" x="116.5" y="-790.8" font-family="Times,serif" font-size="14.00">1</text>
</g>
<!-- node23 -->
<g id="node24" class="node">
<title>node23</title>
<polygon fill="lightblue" stroke="black" points="216.5,-895 154.5,-895 154.5,-859 216.5,-859 216.5,-895"/>
<text text-anchor="middle" x="185.5" y="-873.3" font-family="Times,serif" font-size="14.00">C14H14</text>
</g>
<!-- node24 -->
<g id="node25" class="node">
<title>node24</title>
<polygon fill="lightblue" stroke="black" points="342,-895 280,-895 280,-859 342,-859 342,-895"/>
<text text-anchor="middle" x="311" y="-873.3" font-family="Times,serif" font-size="14.00">C13H11</text>
</g>
<!-- node23&#45;&gt;node24 -->
<g id="edge30" class="edge">
<title>node23&#45;&gt;node24</title>
<path fill="none" stroke="black" d="M216.71,-877C232.56,-877 252.2,-877 269.36,-877"/>
<polygon fill="black" stroke="black" points="269.67,-880.5 279.67,-877 269.67,-873.5 269.67,-880.5"/>
<text text-anchor="middle" x="254.5" y="-880.8" font-family="Times,serif" font-size="14.00">1</text>
</g>
<!-- node25 -->
<g id="node26" class="node">
<title>node25</title>
<polygon fill="lightblue" stroke="black" points="94,-949 1,-949 1,-913 94,-913 94,-949"/>
<text text-anchor="middle" x="47.5" y="-927.3" font-family="Times,serif" font-size="14.00">C17H11O1S1</text>
</g>
<!-- node26 -->
<g id="node27" class="node">
<title>node26</title>
<polygon fill="lightblue" stroke="black" points="232,-949 139,-949 139,-913 232,-913 232,-949"/>
<text text-anchor="middle" x="185.5" y="-927.3" font-family="Times,serif" font-size="14.00">C17H12O1S1</text>
</g>
<!-- node25&#45;&gt;node26 -->
<g id="edge31" class="edge">
<title>node25&#45;&gt;node26</title>
<path fill="none" stroke="black" d="M94.16,-931C105.15,-931 117.02,-931 128.42,-931"/>
<polygon fill="black" stroke="black" points="128.72,-934.5 138.72,-931 128.72,-927.5 128.72,-934.5"/>
<text text-anchor="middle" x="116.5" y="-934.8" font-family="Times,serif" font-size="14.00">1</text>
</g>
<!-- node27 -->
<g id="node28" class="node">
<title>node27</title>
<polygon fill="lightblue" stroke="black" points="74.5,-543 20.5,-543 20.5,-507 74.5,-507 74.5,-543"/>
<text text-anchor="middle" x="47.5" y="-521.3" font-family="Times,serif" font-size="14.00">O2Fe9</text>
</g>
<!-- node27&#45;&gt;node0 -->
<g id="edge32" class="edge">
<title>node27&#45;&gt;node0</title>
<path fill="none" stroke="black" d="M74.72,-525C95.61,-525 125.07,-525 148.22,-525"/>
<polygon fill="black" stroke="black" points="148.36,-528.5 158.36,-525 148.36,-521.5 148.36,-528.5"/>
<text text-anchor="middle" x="116.5" y="-528.8" font-family="Times,serif" font-size="14.00">1</text>
</g>
<!-- node28 -->
<g id="node29" class="node">
<title>node28</title>
<polygon fill="lightblue" stroke="black" points="77.5,-1003 17.5,-1003 17.5,-967 77.5,-967 77.5,-1003"/>
<text text-anchor="middle" x="47.5" y="-981.3" font-family="Times,serif" font-size="14.00">O4Fe14</text>
</g>
<!-- node29 -->
<g id="node30" class="node">
<title>node29</title>
<polygon fill="lightblue" stroke="black" points="224,-1003 147,-1003 147,-967 224,-967 224,-1003"/>
<text text-anchor="middle" x="185.5" y="-981.3" font-family="Times,serif" font-size="14.00">H1O5Fe14</text>
</g>
<!-- node28&#45;&gt;node29 -->
<g id="edge35" class="edge">
<title>node28&#45;&gt;node29</title>
<path fill="none" stroke="black" d="M77.68,-985C94.89,-985 117.1,-985 136.8,-985"/>
<polygon fill="black" stroke="black" points="136.83,-988.5 146.83,-985 136.83,-981.5 136.83,-988.5"/>
<text text-anchor="middle" x="116.5" y="-988.8" font-family="Times,serif" font-size="14.00">1</text>
</g>
<!-- node30 -->
<g id="node31" class="node">
<title>node30</title>
<polygon fill="lightblue" stroke="black" points="82.5,-1057 12.5,-1057 12.5,-1021 82.5,-1021 82.5,-1057"/>
<text text-anchor="middle" x="47.5" y="-1035.3" font-family="Times,serif" font-size="14.00">H1O2Fe6</text>
</g>
<!-- node31 -->
<g id="node32" class="node">
<title>node31</title>
<polygon fill="lightblue" stroke="black" points="220.5,-1057 150.5,-1057 150.5,-1021 220.5,-1021 220.5,-1057"/>
<text text-anchor="middle" x="185.5" y="-1035.3" font-family="Times,serif" font-size="14.00">H3O4Fe7</text>
</g>
<!-- node30&#45;&gt;node31 -->
<g id="edge37" class="edge">
<title>node30&#45;&gt;node31</title>
<path fill="none" stroke="black" d="M82.82,-1039C100.21,-1039 121.54,-1039 140.17,-1039"/>
<polygon fill="black" stroke="black" points="140.19,-1042.5 150.19,-1039 140.19,-1035.5 140.19,-1042.5"/>
<text text-anchor="middle" x="116.5" y="-1042.8" font-family="Times,serif" font-size="14.00">1</text>
</g>
<!-- node32&#45;&gt;node5 -->
<g id="edge41" class="edge">
<title>node32&#45;&gt;node5</title>
<path fill="none" stroke="black" stroke-width="2.1" d="M908.86,-304.26C882.74,-325.52 835.98,-359.43 789,-373 786.22,-373.8 687.89,-373.97 685,-374 599.67,-374.85 572.03,-343.81 493,-376 472.92,-384.18 455.35,-401.23 442.96,-415.95"/>
<polygon fill="black" stroke="black" stroke-width="2.1" points="440.18,-413.83 436.63,-423.81 445.63,-418.22 440.18,-413.83"/>
<text text-anchor="middle" x="688.5" y="-377.8" font-family="Times,serif" font-size="14.00">3</text>
</g>
<!-- node32&#45;&gt;node9 -->
<g id="edge61" class="edge">
<title>node32&#45;&gt;node9</title>
<path fill="none" stroke="black" d="M958.21,-271.93C968.59,-266.35 980.69,-259.86 991.82,-253.89"/>
<polygon fill="black" stroke="black" points="993.72,-256.84 1000.87,-249.03 990.41,-250.67 993.72,-256.84"/>
<text text-anchor="middle" x="979.5" y="-266.8" font-family="Times,serif" font-size="14.00">1</text>
</g>
<!-- node32&#45;&gt;node11 -->
<g id="edge53" class="edge">
<title>node32&#45;&gt;node11</title>
<path fill="none" stroke="black" stroke-width="2.39" d="M903.91,-286.38C878.9,-286.36 840.14,-285.31 807,-280 796.12,-278.26 784.5,-275.44 773.96,-272.51"/>
<polygon fill="black" stroke="black" stroke-width="2.39" points="774.82,-269.11 764.24,-269.69 772.87,-275.84 774.82,-269.11"/>
<text text-anchor="middle" x="834" y="-289.8" font-family="Times,serif" font-size="14.00">4</text>
</g>
<!-- node33 -->
<g id="node34" class="node">
<title>node33</title>
<polygon fill="lightblue" stroke="black" points="74.5,-1111 20.5,-1111 20.5,-1075 74.5,-1075 74.5,-1111"/>
<text text-anchor="middle" x="47.5" y="-1089.3" font-family="Times,serif" font-size="14.00">H5O4</text>
</g>
<!-- node34 -->
<g id="node35" class="node">
<title>node34</title>
<polygon fill="lightblue" stroke="black" points="212.5,-1111 158.5,-1111 158.5,-1075 212.5,-1075 212.5,-1111"/>
<text text-anchor="middle" x="185.5" y="-1089.3" font-family="Times,serif" font-size="14.00">H1O2</text>
</g>
<!-- node33&#45;&gt;node34 -->
<g id="edge48" class="edge">
<title>node33&#45;&gt;node34</title>
<path fill="none" stroke="black" d="M74.72,-1093C95.61,-1093 125.07,-1093 148.22,-1093"/>
<polygon fill="black" stroke="black" points="148.36,-1096.5 158.36,-1093 148.36,-1089.5 148.36,-1096.5"/>
<text text-anchor="middle" x="116.5" y="-1096.8" font-family="Times,serif" font-size="14.00">1</text>
</g>
<!-- node35 -->
<g id="node36" class="node">
<title>node35</title>
<polygon fill="lightblue" stroke="black" points="87,-1165 8,-1165 8,-1129 87,-1129 87,-1165"/>
<text text-anchor="middle" x="47.5" y="-1143.3" font-family="Times,serif" font-size="14.00">C41H23O3</text>
</g>
<!-- node36 -->
<g id="node37" class="node">
<title>node36</title>
<polygon fill="lightblue" stroke="black" points="225,-1165 146,-1165 146,-1129 225,-1129 225,-1165"/>
<text text-anchor="middle" x="185.5" y="-1143.3" font-family="Times,serif" font-size="14.00">C41H25O3</text>
</g>
<!-- node35&#45;&gt;node36 -->
<g id="edge59" class="edge">
<title>node35&#45;&gt;node36</title>
<path fill="none" stroke="black" d="M87.11,-1147C102.18,-1147 119.64,-1147 135.58,-1147"/>
<polygon fill="black" stroke="black" points="135.8,-1150.5 145.8,-1147 135.8,-1143.5 135.8,-1150.5"/>
<text text-anchor="middle" x="116.5" y="-1150.8" font-family="Times,serif" font-size="14.00">1</text>
</g>
<!-- node38 -->
<g id="node39" class="node">
<title>node38</title>
<polygon fill="lightblue" stroke="black" points="78.5,-895 16.5,-895 16.5,-859 78.5,-859 78.5,-895"/>
<text text-anchor="middle" x="47.5" y="-873.3" font-family="Times,serif" font-size="14.00">C14H13</text>
</g>
<!-- node38&#45;&gt;node23 -->
<g id="edge63" class="edge">
<title>node38&#45;&gt;node23</title>
<path fill="none" stroke="black" d="M78.68,-877C97.96,-877 123.19,-877 144.18,-877"/>
<polygon fill="black" stroke="black" points="144.4,-880.5 154.4,-877 144.4,-873.5 144.4,-880.5"/>
<text text-anchor="middle" x="116.5" y="-880.8" font-family="Times,serif" font-size="14.00">1</text>
</g>
</g>
</svg>
