<?xml version="1.0" encoding="UTF-8" standalone="no"?>
<!DOCTYPE svg PUBLIC "-//W3C//DTD SVG 1.1//EN"
 "http://www.w3.org/Graphics/SVG/1.1/DTD/svg11.dtd">
<!-- Generated by graphviz version 2.43.0 (0)
 -->
<!-- Title: ReactionFlow Pages: 1 -->
<svg width="503pt" height="1669pt"
 viewBox="0.00 0.00 503.00 1668.79" xmlns="http://www.w3.org/2000/svg" xmlns:xlink="http://www.w3.org/1999/xlink">
<g id="graph0" class="graph" transform="scale(1 1) rotate(0) translate(4 1664.79)">
<title>ReactionFlow</title>
<polygon fill="white" stroke="transparent" points="-4,4 -4,-1664.79 499,-1664.79 499,4 -4,4"/>
<!-- node0 -->
<g id="node1" class="node">
<title>node0</title>
<polygon fill="lightblue" stroke="black" points="65.5,-37.79 11.5,-37.79 11.5,-1.79 65.5,-1.79 65.5,-37.79"/>
<text text-anchor="middle" x="38.5" y="-16.09" font-family="Times,serif" font-size="14.00">O2Fe5</text>
</g>
<!-- node1 -->
<g id="node2" class="node">
<title>node1</title>
<polygon fill="lightblue" stroke="black" points="185.5,-37.79 131.5,-37.79 131.5,-1.79 185.5,-1.79 185.5,-37.79"/>
<text text-anchor="middle" x="158.5" y="-16.09" font-family="Times,serif" font-size="14.00">O3Fe5</text>
</g>
<!-- node0&#45;&gt;node1 -->
<g id="edge1" class="edge">
<title>node0&#45;&gt;node1</title>
<path fill="none" stroke="black" d="M65.69,-19.79C82.03,-19.79 103.31,-19.79 121.26,-19.79"/>
<polygon fill="black" stroke="black" points="121.39,-23.29 131.39,-19.79 121.39,-16.29 121.39,-23.29"/>
<text text-anchor="middle" x="98.5" y="-23.59" font-family="Times,serif" font-size="14.00">1</text>
</g>
<!-- node1&#45;&gt;node0 -->
<g id="edge23" class="edge">
<title>node1&#45;&gt;node0</title>
<path fill="none" stroke="black" d="M131.42,-8.89C122.29,-5.6 111.85,-2.43 102,-0.79 93.14,0.68 83.78,-0.57 75.08,-3.01"/>
<polygon fill="black" stroke="black" points="73.97,0.31 65.59,-6.18 76.19,-6.33 73.97,0.31"/>
<text text-anchor="middle" x="98.5" y="-4.59" font-family="Times,serif" font-size="14.00">1</text>
</g>
<!-- node2 -->
<g id="node3" class="node">
<title>node2</title>
<polygon fill="lightblue" stroke="black" points="65.5,-121.79 11.5,-121.79 11.5,-85.79 65.5,-85.79 65.5,-121.79"/>
<text text-anchor="middle" x="38.5" y="-100.09" font-family="Times,serif" font-size="14.00">O1Fe3</text>
</g>
<!-- node3 -->
<g id="node4" class="node">
<title>node3</title>
<polygon fill="lightblue" stroke="black" points="185.5,-109.79 131.5,-109.79 131.5,-73.79 185.5,-73.79 185.5,-109.79"/>
<text text-anchor="middle" x="158.5" y="-88.09" font-family="Times,serif" font-size="14.00">O1Fe2</text>
</g>
<!-- node2&#45;&gt;node3 -->
<g id="edge2" class="edge">
<title>node2&#45;&gt;node3</title>
<path fill="none" stroke="black" d="M65.69,-101.13C82.03,-99.47 103.31,-97.3 121.26,-95.48"/>
<polygon fill="black" stroke="black" points="121.79,-98.94 131.39,-94.45 121.08,-91.98 121.79,-98.94"/>
<text text-anchor="middle" x="98.5" y="-101.59" font-family="Times,serif" font-size="14.00">1</text>
</g>
<!-- node3&#45;&gt;node2 -->
<g id="edge24" class="edge">
<title>node3&#45;&gt;node2</title>
<path fill="none" stroke="black" d="M131.33,-81.43C120.13,-78.27 106.92,-76.23 95,-78.79 88.27,-80.24 81.36,-82.57 74.82,-85.24"/>
<polygon fill="black" stroke="black" points="73.27,-82.09 65.54,-89.33 76.1,-88.5 73.27,-82.09"/>
<text text-anchor="middle" x="98.5" y="-82.59" font-family="Times,serif" font-size="14.00">1</text>
</g>
<!-- node4 -->
<g id="node5" class="node">
<title>node4</title>
<polygon fill="lightblue" stroke="black" points="73.5,-480.79 3.5,-480.79 3.5,-444.79 73.5,-444.79 73.5,-480.79"/>
<text text-anchor="middle" x="38.5" y="-459.09" font-family="Times,serif" font-size="14.00">H1O1Fe2</text>
</g>
<!-- node5 -->
<g id="node6" class="node">
<title>node5</title>
<polygon fill="lightblue" stroke="black" points="193.5,-451.79 123.5,-451.79 123.5,-415.79 193.5,-415.79 193.5,-451.79"/>
<text text-anchor="middle" x="158.5" y="-430.09" font-family="Times,serif" font-size="14.00">H1O1Fe1</text>
</g>
<!-- node4&#45;&gt;node5 -->
<g id="edge3" class="edge">
<title>node4&#45;&gt;node5</title>
<path fill="none" stroke="black" d="M73.63,-454.4C86.11,-451.34 100.4,-447.83 113.6,-444.58"/>
<polygon fill="black" stroke="black" points="114.57,-447.95 123.45,-442.16 112.9,-441.15 114.57,-447.95"/>
<text text-anchor="middle" x="98.5" y="-452.59" font-family="Times,serif" font-size="14.00">1</text>
</g>
<!-- node6 -->
<g id="node7" class="node">
<title>node6</title>
<polygon fill="lightblue" stroke="black" points="185.5,-602.79 131.5,-602.79 131.5,-566.79 185.5,-566.79 185.5,-602.79"/>
<text text-anchor="middle" x="158.5" y="-581.09" font-family="Times,serif" font-size="14.00">H4O2</text>
</g>
<!-- node7 -->
<g id="node8" class="node">
<title>node7</title>
<polygon fill="lightblue" stroke="black" points="301,-346.79 247,-346.79 247,-310.79 301,-310.79 301,-346.79"/>
<text text-anchor="middle" x="274" y="-325.09" font-family="Times,serif" font-size="14.00">H2O1</text>
</g>
<!-- node6&#45;&gt;node7 -->
<g id="edge4" class="edge">
<title>node6&#45;&gt;node7</title>
<path fill="none" stroke="black" stroke-width="3.56" d="M164.96,-566.77C177.57,-525.24 208.19,-425.29 215,-410.79 224.44,-390.68 238.85,-370.28 250.95,-354.85"/>
<polygon fill="black" stroke="black" stroke-width="3.56" points="253.86,-356.82 257.38,-346.83 248.39,-352.44 253.86,-356.82"/>
<text text-anchor="middle" x="222" y="-414.59" font-family="Times,serif" font-size="14.00">13</text>
</g>
<!-- node10 -->
<g id="node11" class="node">
<title>node10</title>
<polygon fill="lightblue" stroke="black" points="398,-590.79 344,-590.79 344,-554.79 398,-554.79 398,-590.79"/>
<text text-anchor="middle" x="371" y="-569.09" font-family="Times,serif" font-size="14.00">H5O2</text>
</g>
<!-- node6&#45;&gt;node10 -->
<g id="edge29" class="edge">
<title>node6&#45;&gt;node10</title>
<path fill="none" stroke="black" d="M185.64,-591.91C194.88,-594.29 205.36,-596.83 215,-598.79 252.52,-606.44 262.9,-607.56 301,-603.79 312.28,-602.68 315.42,-602.84 326,-598.79 328.89,-597.69 331.81,-596.4 334.7,-595"/>
<polygon fill="black" stroke="black" points="336.51,-598 343.73,-590.24 333.25,-591.8 336.51,-598"/>
<text text-anchor="middle" x="274" y="-610.59" font-family="Times,serif" font-size="14.00">1</text>
</g>
<!-- node11 -->
<g id="node12" class="node">
<title>node11</title>
<polygon fill="lightblue" stroke="black" points="495,-536.79 441,-536.79 441,-500.79 495,-500.79 495,-536.79"/>
<text text-anchor="middle" x="468" y="-515.09" font-family="Times,serif" font-size="14.00">H3O1</text>
</g>
<!-- node6&#45;&gt;node11 -->
<g id="edge12" class="edge">
<title>node6&#45;&gt;node11</title>
<path fill="none" stroke="black" d="M172.48,-566.45C187.71,-546.66 215,-516.33 247,-503.79 308.18,-479.82 386.21,-494.73 431,-507.17"/>
<polygon fill="black" stroke="black" points="430.26,-510.6 440.84,-510.01 432.2,-503.87 430.26,-510.6"/>
<text text-anchor="middle" x="322.5" y="-495.59" font-family="Times,serif" font-size="14.00">1</text>
</g>
<!-- node15 -->
<g id="node16" class="node">
<title>node15</title>
<polygon fill="lightblue" stroke="black" points="495,-700.79 441,-700.79 441,-664.79 495,-664.79 495,-700.79"/>
<text text-anchor="middle" x="468" y="-679.09" font-family="Times,serif" font-size="14.00">H7O3</text>
</g>
<!-- node6&#45;&gt;node15 -->
<g id="edge33" class="edge">
<title>node6&#45;&gt;node15</title>
<path fill="none" stroke="black" d="M173.49,-602.96C189.21,-622.02 216.56,-651.33 247,-666.79 276.83,-681.95 285.91,-683.85 319,-688.79 356.88,-694.45 400.78,-691.49 430.87,-688.03"/>
<polygon fill="black" stroke="black" points="431.41,-691.49 440.91,-686.8 430.56,-684.54 431.41,-691.49"/>
<text text-anchor="middle" x="322.5" y="-692.59" font-family="Times,serif" font-size="14.00">1</text>
</g>
<!-- node7&#45;&gt;node6 -->
<g id="edge5" class="edge">
<title>node7&#45;&gt;node6</title>
<path fill="none" stroke="black" stroke-width="3.64" d="M256.21,-346.83C252.8,-351.17 249.49,-355.96 247,-360.79 233.26,-387.43 239.37,-397.67 229,-425.79 223.91,-439.6 221.02,-442.37 215,-455.79 199.35,-490.71 182.03,-531.3 170.97,-557.48"/>
<polygon fill="black" stroke="black" stroke-width="3.64" points="167.71,-556.2 167.05,-566.77 174.16,-558.91 167.71,-556.2"/>
<text text-anchor="middle" x="222" y="-459.59" font-family="Times,serif" font-size="14.00">14</text>
</g>
<!-- node8 -->
<g id="node9" class="node">
<title>node8</title>
<polygon fill="lightblue" stroke="black" points="65.5,-371.79 11.5,-371.79 11.5,-335.79 65.5,-335.79 65.5,-371.79"/>
<text text-anchor="middle" x="38.5" y="-350.09" font-family="Times,serif" font-size="14.00">H1O1</text>
</g>
<!-- node7&#45;&gt;node8 -->
<g id="edge9" class="edge">
<title>node7&#45;&gt;node8</title>
<path fill="none" stroke="black" stroke-width="4.4" d="M246.99,-322.88C216.3,-316.88 163.91,-309.66 120,-318.79 104.6,-321.99 88.54,-328.3 74.85,-334.69"/>
<polygon fill="black" stroke="black" stroke-width="4.4" points="73.1,-331.26 65.79,-339.09 76.47,-338.19 73.1,-331.26"/>
<text text-anchor="middle" x="158.5" y="-322.59" font-family="Times,serif" font-size="14.00">30</text>
</g>
<!-- node7&#45;&gt;node10 -->
<g id="edge10" class="edge">
<title>node7&#45;&gt;node10</title>
<path fill="none" stroke="black" stroke-width="2.79" d="M292.24,-347.09C295.55,-351.34 298.69,-356.02 301,-360.79 317.06,-393.99 308.28,-406.51 319,-441.79 330.07,-478.24 346.6,-518.93 357.81,-545.15"/>
<polygon fill="black" stroke="black" stroke-width="2.79" points="354.65,-546.66 361.83,-554.45 361.08,-543.88 354.65,-546.66"/>
<text text-anchor="middle" x="322.5" y="-464.59" font-family="Times,serif" font-size="14.00">6</text>
</g>
<!-- node7&#45;&gt;node11 -->
<g id="edge8" class="edge">
<title>node7&#45;&gt;node11</title>
<path fill="none" stroke="black" stroke-width="2.61" d="M278.12,-310.56C283.19,-285.1 295.14,-238.36 319,-205.79 340.34,-176.66 369.99,-164 398,-186.79 445.02,-225.05 461.04,-416.58 465.51,-490.05"/>
<polygon fill="black" stroke="black" stroke-width="2.61" points="462.04,-490.61 466.11,-500.39 469.03,-490.21 462.04,-490.61"/>
<text text-anchor="middle" x="371" y="-190.59" font-family="Times,serif" font-size="14.00">5</text>
</g>
<!-- node16 -->
<g id="node17" class="node">
<title>node16</title>
<polygon fill="lightblue" stroke="black" points="398,-318.79 344,-318.79 344,-282.79 398,-282.79 398,-318.79"/>
<text text-anchor="middle" x="371" y="-297.09" font-family="Times,serif" font-size="14.00">H2O2</text>
</g>
<!-- node7&#45;&gt;node16 -->
<g id="edge46" class="edge">
<title>node7&#45;&gt;node16</title>
<path fill="none" stroke="black" d="M301.21,-321.07C311.39,-318.07 323.21,-314.58 334.15,-311.36"/>
<polygon fill="black" stroke="black" points="335.27,-314.68 343.87,-308.49 333.29,-307.96 335.27,-314.68"/>
<text text-anchor="middle" x="322.5" y="-319.59" font-family="Times,serif" font-size="14.00">1</text>
</g>
<!-- node18 -->
<g id="node19" class="node">
<title>node18</title>
<polygon fill="lightblue" stroke="black" points="398,-246.79 344,-246.79 344,-210.79 398,-210.79 398,-246.79"/>
<text text-anchor="middle" x="371" y="-225.09" font-family="Times,serif" font-size="14.00">H3O2</text>
</g>
<!-- node7&#45;&gt;node18 -->
<g id="edge35" class="edge">
<title>node7&#45;&gt;node18</title>
<path fill="none" stroke="black" d="M286.07,-310.64C294.29,-297.91 306.26,-280.9 319,-267.79 324.13,-262.52 330,-257.37 335.9,-252.64"/>
<polygon fill="black" stroke="black" points="338.11,-255.35 343.88,-246.46 333.83,-249.81 338.11,-255.35"/>
<text text-anchor="middle" x="322.5" y="-271.59" font-family="Times,serif" font-size="14.00">1</text>
</g>
<!-- node8&#45;&gt;node5 -->
<g id="edge42" class="edge">
<title>node8&#45;&gt;node5</title>
<path fill="none" stroke="black" d="M65.7,-366.6C77.15,-372.56 90.54,-380.04 102,-387.79 111.52,-394.24 121.36,-401.98 130.05,-409.26"/>
<polygon fill="black" stroke="black" points="127.8,-411.94 137.68,-415.77 132.34,-406.61 127.8,-411.94"/>
<text text-anchor="middle" x="98.5" y="-391.59" font-family="Times,serif" font-size="14.00">1</text>
</g>
<!-- node8&#45;&gt;node6 -->
<g id="edge26" class="edge">
<title>node8&#45;&gt;node6</title>
<path fill="none" stroke="black" d="M57.38,-371.81C71.1,-386.43 89.69,-408.1 102,-429.79 125.57,-471.34 142.02,-524.69 150.6,-556.73"/>
<polygon fill="black" stroke="black" points="147.3,-557.94 153.2,-566.73 154.07,-556.17 147.3,-557.94"/>
<text text-anchor="middle" x="98.5" y="-433.59" font-family="Times,serif" font-size="14.00">1</text>
</g>
<!-- node8&#45;&gt;node7 -->
<g id="edge6" class="edge">
<title>node8&#45;&gt;node7</title>
<path fill="none" stroke="black" stroke-width="4.3" d="M65.83,-350.97C107.63,-346.5 189.29,-337.75 236.64,-332.68"/>
<polygon fill="black" stroke="black" stroke-width="4.3" points="237.22,-336.4 246.76,-331.6 236.42,-328.93 237.22,-336.4"/>
<text text-anchor="middle" x="158.5" y="-349.59" font-family="Times,serif" font-size="14.00">27</text>
</g>
<!-- node8&#45;&gt;node18 -->
<g id="edge25" class="edge">
<title>node8&#45;&gt;node18</title>
<path fill="none" stroke="black" d="M63.6,-335.57C109.99,-301.79 216.26,-230.62 319,-205.79 324.93,-204.36 331.01,-205.01 336.83,-206.81"/>
<polygon fill="black" stroke="black" points="335.7,-210.14 346.27,-210.77 338.4,-203.68 335.7,-210.14"/>
<text text-anchor="middle" x="222" y="-247.59" font-family="Times,serif" font-size="14.00">1</text>
</g>
<!-- node9 -->
<g id="node10" class="node">
<title>node9</title>
<polygon fill="lightblue" stroke="black" points="301,-548.79 247,-548.79 247,-512.79 301,-512.79 301,-548.79"/>
<text text-anchor="middle" x="274" y="-527.09" font-family="Times,serif" font-size="14.00">H9O4</text>
</g>
<!-- node9&#45;&gt;node10 -->
<g id="edge7" class="edge">
<title>node9&#45;&gt;node10</title>
<path fill="none" stroke="black" d="M301.21,-542.38C311.49,-546.92 323.45,-552.21 334.48,-557.09"/>
<polygon fill="black" stroke="black" points="333.31,-560.4 343.87,-561.24 336.14,-554 333.31,-560.4"/>
<text text-anchor="middle" x="322.5" y="-557.59" font-family="Times,serif" font-size="14.00">1</text>
</g>
<!-- node10&#45;&gt;node6 -->
<g id="edge34" class="edge">
<title>node10&#45;&gt;node6</title>
<path fill="none" stroke="black" d="M343.77,-574.29C306.48,-576.41 238.01,-580.32 195.85,-582.72"/>
<polygon fill="black" stroke="black" points="195.52,-579.23 185.73,-583.3 195.92,-586.22 195.52,-579.23"/>
<text text-anchor="middle" x="274" y="-583.59" font-family="Times,serif" font-size="14.00">1</text>
</g>
<!-- node10&#45;&gt;node7 -->
<g id="edge41" class="edge">
<title>node10&#45;&gt;node7</title>
<path fill="none" stroke="black" stroke-width="1.69" d="M366.87,-554.67C359.71,-516.61 339.73,-426.47 301,-360.79 299.88,-358.89 298.65,-356.98 297.35,-355.09"/>
<polygon fill="black" stroke="black" stroke-width="1.69" points="300.16,-353 291.39,-347.06 294.54,-357.17 300.16,-353"/>
<text text-anchor="middle" x="322.5" y="-414.59" font-family="Times,serif" font-size="14.00">2</text>
</g>
<!-- node10&#45;&gt;node11 -->
<g id="edge28" class="edge">
<title>node10&#45;&gt;node11</title>
<path fill="none" stroke="black" d="M398.22,-562.79C406.35,-559.35 415.21,-555.23 423,-550.79 427.19,-548.4 431.46,-545.69 435.61,-542.89"/>
<polygon fill="black" stroke="black" points="437.73,-545.68 443.9,-537.06 433.7,-539.95 437.73,-545.68"/>
<text text-anchor="middle" x="419.5" y="-558.59" font-family="Times,serif" font-size="14.00">1</text>
</g>
<!-- node10&#45;&gt;node15 -->
<g id="edge27" class="edge">
<title>node10&#45;&gt;node15</title>
<path fill="none" stroke="black" stroke-width="2.39" d="M386.42,-591C394.9,-601.57 405.9,-615.07 416,-626.79 424.58,-636.75 434.24,-647.48 442.83,-656.85"/>
<polygon fill="black" stroke="black" stroke-width="2.39" points="440.39,-659.37 449.74,-664.36 445.54,-654.63 440.39,-659.37"/>
<text text-anchor="middle" x="419.5" y="-638.59" font-family="Times,serif" font-size="14.00">4</text>
</g>
<!-- node11&#45;&gt;node6 -->
<g id="edge44" class="edge">
<title>node11&#45;&gt;node6</title>
<path fill="none" stroke="black" d="M467.26,-537.03C466.59,-567.16 460.31,-626.71 423,-653.79 351.58,-705.63 244.27,-645.23 191.34,-608.68"/>
<polygon fill="black" stroke="black" points="193.21,-605.71 183.02,-602.82 189.18,-611.44 193.21,-605.71"/>
<text text-anchor="middle" x="322.5" y="-673.59" font-family="Times,serif" font-size="14.00">1</text>
</g>
<!-- node11&#45;&gt;node7 -->
<g id="edge30" class="edge">
<title>node11&#45;&gt;node7</title>
<path fill="none" stroke="black" d="M451.33,-500.4C426.14,-471.24 374.53,-413.17 326,-368.79 320.35,-363.62 314.1,-358.38 307.96,-353.46"/>
<polygon fill="black" stroke="black" points="309.77,-350.42 299.74,-346.99 305.44,-355.92 309.77,-350.42"/>
<text text-anchor="middle" x="371" y="-443.59" font-family="Times,serif" font-size="14.00">1</text>
</g>
<!-- node11&#45;&gt;node10 -->
<g id="edge43" class="edge">
<title>node11&#45;&gt;node10</title>
<path fill="none" stroke="black" d="M440.9,-522.81C432.61,-524.77 423.62,-527.63 416,-531.79 408.53,-535.87 401.35,-541.52 395.04,-547.31"/>
<polygon fill="black" stroke="black" points="392.26,-545.13 387.55,-554.63 397.15,-550.14 392.26,-545.13"/>
<text text-anchor="middle" x="419.5" y="-535.59" font-family="Times,serif" font-size="14.00">1</text>
</g>
<!-- node12 -->
<g id="node13" class="node">
<title>node12</title>
<polygon fill="lightblue" stroke="black" points="65.5,-830.79 11.5,-830.79 11.5,-794.79 65.5,-794.79 65.5,-830.79"/>
<text text-anchor="middle" x="38.5" y="-809.09" font-family="Times,serif" font-size="14.00">C3H6</text>
</g>
<!-- node13 -->
<g id="node14" class="node">
<title>node13</title>
<polygon fill="lightblue" stroke="black" points="185.5,-830.79 131.5,-830.79 131.5,-794.79 185.5,-794.79 185.5,-830.79"/>
<text text-anchor="middle" x="158.5" y="-809.09" font-family="Times,serif" font-size="14.00">C4H9</text>
</g>
<!-- node12&#45;&gt;node13 -->
<g id="edge11" class="edge">
<title>node12&#45;&gt;node13</title>
<path fill="none" stroke="black" d="M65.69,-812.79C82.03,-812.79 103.31,-812.79 121.26,-812.79"/>
<polygon fill="black" stroke="black" points="121.39,-816.29 131.39,-812.79 121.39,-809.29 121.39,-816.29"/>
<text text-anchor="middle" x="98.5" y="-816.59" font-family="Times,serif" font-size="14.00">1</text>
</g>
<!-- node14 -->
<g id="node15" class="node">
<title>node14</title>
<polygon fill="lightblue" stroke="black" points="65.5,-776.79 11.5,-776.79 11.5,-740.79 65.5,-740.79 65.5,-776.79"/>
<text text-anchor="middle" x="38.5" y="-755.09" font-family="Times,serif" font-size="14.00">H6O3</text>
</g>
<!-- node14&#45;&gt;node6 -->
<g id="edge17" class="edge">
<title>node14&#45;&gt;node6</title>
<path fill="none" stroke="black" d="M51.91,-740.5C72.85,-709.61 115.31,-647 139.52,-611.3"/>
<polygon fill="black" stroke="black" points="142.55,-613.08 145.26,-602.84 136.75,-609.15 142.55,-613.08"/>
<text text-anchor="middle" x="98.5" y="-675.59" font-family="Times,serif" font-size="14.00">1</text>
</g>
<!-- node14&#45;&gt;node15 -->
<g id="edge13" class="edge">
<title>node14&#45;&gt;node15</title>
<path fill="none" stroke="black" d="M65.74,-760.19C89.64,-761.34 125.93,-762.79 157.5,-762.79 157.5,-762.79 157.5,-762.79 372,-762.79 405.84,-762.79 433.9,-732.72 450.54,-709.45"/>
<polygon fill="black" stroke="black" points="453.6,-711.18 456.35,-700.95 447.82,-707.23 453.6,-711.18"/>
<text text-anchor="middle" x="274" y="-766.59" font-family="Times,serif" font-size="14.00">1</text>
</g>
<!-- node15&#45;&gt;node10 -->
<g id="edge32" class="edge">
<title>node15&#45;&gt;node10</title>
<path fill="none" stroke="black" d="M459.16,-664.66C451.55,-648.49 438.85,-624.8 423,-607.79 418.18,-602.62 412.47,-597.79 406.64,-593.47"/>
<polygon fill="black" stroke="black" points="408.31,-590.37 398.1,-587.53 404.31,-596.12 408.31,-590.37"/>
<text text-anchor="middle" x="419.5" y="-611.59" font-family="Times,serif" font-size="14.00">1</text>
</g>
<!-- node16&#45;&gt;node7 -->
<g id="edge14" class="edge">
<title>node16&#45;&gt;node7</title>
<path fill="none" stroke="black" stroke-width="1.69" d="M343.92,-287.91C335.8,-285.54 326.91,-284.68 319,-287.79 310.48,-291.15 302.64,-297.01 296,-303.28"/>
<polygon fill="black" stroke="black" stroke-width="1.69" points="293.26,-301.08 288.8,-310.69 298.28,-305.95 293.26,-301.08"/>
<text text-anchor="middle" x="322.5" y="-291.59" font-family="Times,serif" font-size="14.00">2</text>
</g>
<!-- node17 -->
<g id="node18" class="node">
<title>node17</title>
<polygon fill="lightblue" stroke="black" points="301,-405.79 247,-405.79 247,-369.79 301,-369.79 301,-405.79"/>
<text text-anchor="middle" x="274" y="-384.09" font-family="Times,serif" font-size="14.00">H1O2</text>
</g>
<!-- node17&#45;&gt;node16 -->
<g id="edge15" class="edge">
<title>node17&#45;&gt;node16</title>
<path fill="none" stroke="black" d="M294.68,-369.77C308.57,-357.05 327.35,-339.85 342.68,-325.81"/>
<polygon fill="black" stroke="black" points="345.33,-328.13 350.34,-318.8 340.6,-322.97 345.33,-328.13"/>
<text text-anchor="middle" x="322.5" y="-351.59" font-family="Times,serif" font-size="14.00">1</text>
</g>
<!-- node18&#45;&gt;node7 -->
<g id="edge16" class="edge">
<title>node18&#45;&gt;node7</title>
<path fill="none" stroke="black" stroke-width="1.69" d="M343.77,-211.19C335.38,-207.81 326.37,-206.69 319,-211.79 290.33,-231.64 280.32,-272.66 276.83,-300.46"/>
<polygon fill="black" stroke="black" stroke-width="1.69" points="273.32,-300.44 275.76,-310.75 280.28,-301.17 273.32,-300.44"/>
<text text-anchor="middle" x="322.5" y="-215.59" font-family="Times,serif" font-size="14.00">2</text>
</g>
<!-- node19 -->
<g id="node20" class="node">
<title>node19</title>
<polygon fill="lightblue" stroke="black" points="65.5,-979.79 11.5,-979.79 11.5,-943.79 65.5,-943.79 65.5,-979.79"/>
<text text-anchor="middle" x="38.5" y="-958.09" font-family="Times,serif" font-size="14.00">C1H2</text>
</g>
<!-- node20 -->
<g id="node21" class="node">
<title>node20</title>
<polygon fill="lightblue" stroke="black" points="185.5,-998.79 131.5,-998.79 131.5,-962.79 185.5,-962.79 185.5,-998.79"/>
<text text-anchor="middle" x="158.5" y="-977.09" font-family="Times,serif" font-size="14.00">C2H5</text>
</g>
<!-- node19&#45;&gt;node20 -->
<g id="edge18" class="edge">
<title>node19&#45;&gt;node20</title>
<path fill="none" stroke="black" d="M65.69,-966.01C82.11,-968.65 103.51,-972.1 121.51,-975"/>
<polygon fill="black" stroke="black" points="120.96,-978.45 131.39,-976.59 122.07,-971.54 120.96,-978.45"/>
<text text-anchor="middle" x="98.5" y="-974.59" font-family="Times,serif" font-size="14.00">1</text>
</g>
<!-- node32 -->
<g id="node33" class="node">
<title>node32</title>
<polygon fill="lightblue" stroke="black" points="185.5,-941.79 131.5,-941.79 131.5,-905.79 185.5,-905.79 185.5,-941.79"/>
<text text-anchor="middle" x="158.5" y="-920.09" font-family="Times,serif" font-size="14.00">C2H4</text>
</g>
<!-- node19&#45;&gt;node32 -->
<g id="edge49" class="edge">
<title>node19&#45;&gt;node32</title>
<path fill="none" stroke="black" d="M65.69,-953.36C82.19,-948.05 103.71,-941.12 121.76,-935.3"/>
<polygon fill="black" stroke="black" points="122.94,-938.6 131.39,-932.2 120.79,-931.94 122.94,-938.6"/>
<text text-anchor="middle" x="98.5" y="-946.59" font-family="Times,serif" font-size="14.00">1</text>
</g>
<!-- node21 -->
<g id="node22" class="node">
<title>node21</title>
<polygon fill="lightblue" stroke="black" points="74.5,-1052.79 2.5,-1052.79 2.5,-1016.79 74.5,-1016.79 74.5,-1052.79"/>
<text text-anchor="middle" x="38.5" y="-1031.09" font-family="Times,serif" font-size="14.00">C17H8N2</text>
</g>
<!-- node22 -->
<g id="node23" class="node">
<title>node22</title>
<polygon fill="lightblue" stroke="black" points="194.5,-1052.79 122.5,-1052.79 122.5,-1016.79 194.5,-1016.79 194.5,-1052.79"/>
<text text-anchor="middle" x="158.5" y="-1031.09" font-family="Times,serif" font-size="14.00">C17H9N2</text>
</g>
<!-- node21&#45;&gt;node22 -->
<g id="edge19" class="edge">
<title>node21&#45;&gt;node22</title>
<path fill="none" stroke="black" d="M74.58,-1034.79C86.37,-1034.79 99.68,-1034.79 112.14,-1034.79"/>
<polygon fill="black" stroke="black" points="112.35,-1038.29 122.35,-1034.79 112.35,-1031.29 112.35,-1038.29"/>
<text text-anchor="middle" x="98.5" y="-1038.59" font-family="Times,serif" font-size="14.00">1</text>
</g>
<!-- node23 -->
<g id="node24" class="node">
<title>node23</title>
<polygon fill="lightblue" stroke="black" points="65.5,-1106.79 11.5,-1106.79 11.5,-1070.79 65.5,-1070.79 65.5,-1106.79"/>
<text text-anchor="middle" x="38.5" y="-1085.09" font-family="Times,serif" font-size="14.00">C5H3</text>
</g>
<!-- node24 -->
<g id="node25" class="node">
<title>node24</title>
<polygon fill="lightblue" stroke="black" points="185.5,-1106.79 131.5,-1106.79 131.5,-1070.79 185.5,-1070.79 185.5,-1106.79"/>
<text text-anchor="middle" x="158.5" y="-1085.09" font-family="Times,serif" font-size="14.00">C6H4</text>
</g>
<!-- node23&#45;&gt;node24 -->
<g id="edge20" class="edge">
<title>node23&#45;&gt;node24</title>
<path fill="none" stroke="black" d="M65.69,-1088.79C82.03,-1088.79 103.31,-1088.79 121.26,-1088.79"/>
<polygon fill="black" stroke="black" points="121.39,-1092.29 131.39,-1088.79 121.39,-1085.29 121.39,-1092.29"/>
<text text-anchor="middle" x="98.5" y="-1092.59" font-family="Times,serif" font-size="14.00">1</text>
</g>
<!-- node25 -->
<g id="node26" class="node">
<title>node25</title>
<polygon fill="lightblue" stroke="black" points="65.5,-1187.79 11.5,-1187.79 11.5,-1151.79 65.5,-1151.79 65.5,-1187.79"/>
<text text-anchor="middle" x="38.5" y="-1166.09" font-family="Times,serif" font-size="14.00">C2</text>
</g>
<!-- node26 -->
<g id="node27" class="node">
<title>node26</title>
<polygon fill="lightblue" stroke="black" points="185.5,-1214.79 131.5,-1214.79 131.5,-1178.79 185.5,-1178.79 185.5,-1214.79"/>
<text text-anchor="middle" x="158.5" y="-1193.09" font-family="Times,serif" font-size="14.00">C1H1</text>
</g>
<!-- node25&#45;&gt;node26 -->
<g id="edge21" class="edge">
<title>node25&#45;&gt;node26</title>
<path fill="none" stroke="black" d="M65.69,-1175.78C82.11,-1179.54 103.51,-1184.44 121.51,-1188.56"/>
<polygon fill="black" stroke="black" points="120.86,-1192 131.39,-1190.82 122.42,-1185.17 120.86,-1192"/>
<text text-anchor="middle" x="98.5" y="-1186.59" font-family="Times,serif" font-size="14.00">1</text>
</g>
<!-- node37 -->
<g id="node38" class="node">
<title>node37</title>
<polygon fill="lightblue" stroke="black" points="185.5,-1160.79 131.5,-1160.79 131.5,-1124.79 185.5,-1124.79 185.5,-1160.79"/>
<text text-anchor="middle" x="158.5" y="-1139.09" font-family="Times,serif" font-size="14.00">C4</text>
</g>
<!-- node25&#45;&gt;node37 -->
<g id="edge39" class="edge">
<title>node25&#45;&gt;node37</title>
<path fill="none" stroke="black" d="M65.69,-1163.8C82.11,-1160.04 103.51,-1155.15 121.51,-1151.03"/>
<polygon fill="black" stroke="black" points="122.42,-1154.41 131.39,-1148.77 120.86,-1147.59 122.42,-1154.41"/>
<text text-anchor="middle" x="98.5" y="-1159.59" font-family="Times,serif" font-size="14.00">1</text>
</g>
<!-- node27 -->
<g id="node28" class="node">
<title>node27</title>
<polygon fill="lightblue" stroke="black" points="71,-1268.79 6,-1268.79 6,-1232.79 71,-1232.79 71,-1268.79"/>
<text text-anchor="middle" x="38.5" y="-1247.09" font-family="Times,serif" font-size="14.00">C2H3O1</text>
</g>
<!-- node28 -->
<g id="node29" class="node">
<title>node28</title>
<polygon fill="lightblue" stroke="black" points="191,-1268.79 126,-1268.79 126,-1232.79 191,-1232.79 191,-1268.79"/>
<text text-anchor="middle" x="158.5" y="-1247.09" font-family="Times,serif" font-size="14.00">C1H2O1</text>
</g>
<!-- node27&#45;&gt;node28 -->
<g id="edge22" class="edge">
<title>node27&#45;&gt;node28</title>
<path fill="none" stroke="black" d="M71.12,-1250.79C84.75,-1250.79 100.87,-1250.79 115.48,-1250.79"/>
<polygon fill="black" stroke="black" points="115.79,-1254.29 125.79,-1250.79 115.79,-1247.29 115.79,-1254.29"/>
<text text-anchor="middle" x="98.5" y="-1254.59" font-family="Times,serif" font-size="14.00">1</text>
</g>
<!-- node29 -->
<g id="node30" class="node">
<title>node29</title>
<polygon fill="lightblue" stroke="black" points="77,-1322.79 0,-1322.79 0,-1286.79 77,-1286.79 77,-1322.79"/>
<text text-anchor="middle" x="38.5" y="-1301.09" font-family="Times,serif" font-size="14.00">H4O7Fe16</text>
</g>
<!-- node30 -->
<g id="node31" class="node">
<title>node30</title>
<polygon fill="lightblue" stroke="black" points="197,-1322.79 120,-1322.79 120,-1286.79 197,-1286.79 197,-1322.79"/>
<text text-anchor="middle" x="158.5" y="-1301.09" font-family="Times,serif" font-size="14.00">H3O6Fe13</text>
</g>
<!-- node29&#45;&gt;node30 -->
<g id="edge31" class="edge">
<title>node29&#45;&gt;node30</title>
<path fill="none" stroke="black" d="M77.16,-1304.79C87.49,-1304.79 98.82,-1304.79 109.63,-1304.79"/>
<polygon fill="black" stroke="black" points="109.79,-1308.29 119.79,-1304.79 109.79,-1301.29 109.79,-1308.29"/>
<text text-anchor="middle" x="98.5" y="-1308.59" font-family="Times,serif" font-size="14.00">1</text>
</g>
<!-- node31 -->
<g id="node32" class="node">
<title>node31</title>
<polygon fill="lightblue" stroke="black" points="65.5,-903.79 11.5,-903.79 11.5,-867.79 65.5,-867.79 65.5,-903.79"/>
<text text-anchor="middle" x="38.5" y="-882.09" font-family="Times,serif" font-size="14.00">C2H3</text>
</g>
<!-- node31&#45;&gt;node32 -->
<g id="edge36" class="edge">
<title>node31&#45;&gt;node32</title>
<path fill="none" stroke="black" d="M65.66,-894.14C76.85,-897.72 90.07,-901.95 102,-905.79 108.26,-907.81 114.92,-909.96 121.37,-912.05"/>
<polygon fill="black" stroke="black" points="120.66,-915.5 131.25,-915.26 122.82,-908.84 120.66,-915.5"/>
<text text-anchor="middle" x="98.5" y="-909.59" font-family="Times,serif" font-size="14.00">1</text>
</g>
<!-- node46 -->
<g id="node47" class="node">
<title>node46</title>
<polygon fill="lightblue" stroke="black" points="185.5,-884.79 131.5,-884.79 131.5,-848.79 185.5,-848.79 185.5,-884.79"/>
<text text-anchor="middle" x="158.5" y="-863.09" font-family="Times,serif" font-size="14.00">C3H3</text>
</g>
<!-- node31&#45;&gt;node46 -->
<g id="edge51" class="edge">
<title>node31&#45;&gt;node46</title>
<path fill="none" stroke="black" d="M65.64,-875.55C74.78,-872.44 85.21,-869.42 95,-867.79 103.45,-866.39 112.63,-865.75 121.28,-865.55"/>
<polygon fill="black" stroke="black" points="121.52,-869.05 131.5,-865.49 121.48,-862.05 121.52,-869.05"/>
<text text-anchor="middle" x="98.5" y="-871.59" font-family="Times,serif" font-size="14.00">1</text>
</g>
<!-- node33 -->
<g id="node34" class="node">
<title>node33</title>
<polygon fill="lightblue" stroke="black" points="65.5,-1383.79 11.5,-1383.79 11.5,-1347.79 65.5,-1347.79 65.5,-1383.79"/>
<text text-anchor="middle" x="38.5" y="-1362.09" font-family="Times,serif" font-size="14.00">C7H5</text>
</g>
<!-- node34 -->
<g id="node35" class="node">
<title>node34</title>
<polygon fill="lightblue" stroke="black" points="185.5,-1383.79 131.5,-1383.79 131.5,-1347.79 185.5,-1347.79 185.5,-1383.79"/>
<text text-anchor="middle" x="158.5" y="-1362.09" font-family="Times,serif" font-size="14.00">C6H5</text>
</g>
<!-- node33&#45;&gt;node34 -->
<g id="edge37" class="edge">
<title>node33&#45;&gt;node34</title>
<path fill="none" stroke="black" d="M65.69,-1365.79C82.03,-1365.79 103.31,-1365.79 121.26,-1365.79"/>
<polygon fill="black" stroke="black" points="121.39,-1369.29 131.39,-1365.79 121.39,-1362.29 121.39,-1369.29"/>
<text text-anchor="middle" x="98.5" y="-1369.59" font-family="Times,serif" font-size="14.00">1</text>
</g>
<!-- node34&#45;&gt;node33 -->
<g id="edge50" class="edge">
<title>node34&#45;&gt;node33</title>
<path fill="none" stroke="black" d="M131.42,-1354.89C122.29,-1351.6 111.85,-1348.43 102,-1346.79 93.14,-1345.32 83.78,-1346.57 75.08,-1349.01"/>
<polygon fill="black" stroke="black" points="73.97,-1345.69 65.59,-1352.18 76.19,-1352.33 73.97,-1345.69"/>
<text text-anchor="middle" x="98.5" y="-1350.59" font-family="Times,serif" font-size="14.00">1</text>
</g>
<!-- node35 -->
<g id="node36" class="node">
<title>node35</title>
<polygon fill="lightblue" stroke="black" points="65.5,-1444.79 11.5,-1444.79 11.5,-1408.79 65.5,-1408.79 65.5,-1444.79"/>
<text text-anchor="middle" x="38.5" y="-1423.09" font-family="Times,serif" font-size="14.00">C3</text>
</g>
<!-- node36 -->
<g id="node37" class="node">
<title>node36</title>
<polygon fill="lightblue" stroke="black" points="185.5,-1444.79 131.5,-1444.79 131.5,-1408.79 185.5,-1408.79 185.5,-1444.79"/>
<text text-anchor="middle" x="158.5" y="-1423.09" font-family="Times,serif" font-size="14.00">C3H1</text>
</g>
<!-- node35&#45;&gt;node36 -->
<g id="edge38" class="edge">
<title>node35&#45;&gt;node36</title>
<path fill="none" stroke="black" d="M65.69,-1426.79C82.03,-1426.79 103.31,-1426.79 121.26,-1426.79"/>
<polygon fill="black" stroke="black" points="121.39,-1430.29 131.39,-1426.79 121.39,-1423.29 121.39,-1430.29"/>
<text text-anchor="middle" x="98.5" y="-1430.59" font-family="Times,serif" font-size="14.00">1</text>
</g>
<!-- node38 -->
<g id="node39" class="node">
<title>node38</title>
<polygon fill="lightblue" stroke="black" points="73.5,-1498.79 3.5,-1498.79 3.5,-1462.79 73.5,-1462.79 73.5,-1498.79"/>
<text text-anchor="middle" x="38.5" y="-1477.09" font-family="Times,serif" font-size="14.00">H2O4Fe8</text>
</g>
<!-- node39 -->
<g id="node40" class="node">
<title>node39</title>
<polygon fill="lightblue" stroke="black" points="197,-1498.79 120,-1498.79 120,-1462.79 197,-1462.79 197,-1498.79"/>
<text text-anchor="middle" x="158.5" y="-1477.09" font-family="Times,serif" font-size="14.00">H2O5Fe11</text>
</g>
<!-- node38&#45;&gt;node39 -->
<g id="edge40" class="edge">
<title>node38&#45;&gt;node39</title>
<path fill="none" stroke="black" d="M73.63,-1480.79C84.79,-1480.79 97.41,-1480.79 109.4,-1480.79"/>
<polygon fill="black" stroke="black" points="109.72,-1484.29 119.72,-1480.79 109.72,-1477.29 109.72,-1484.29"/>
<text text-anchor="middle" x="98.5" y="-1484.59" font-family="Times,serif" font-size="14.00">1</text>
</g>
<!-- node40 -->
<g id="node41" class="node">
<title>node40</title>
<polygon fill="lightblue" stroke="black" points="71,-1552.79 6,-1552.79 6,-1516.79 71,-1516.79 71,-1552.79"/>
<text text-anchor="middle" x="38.5" y="-1531.09" font-family="Times,serif" font-size="14.00">C3H2O1</text>
</g>
<!-- node41 -->
<g id="node42" class="node">
<title>node41</title>
<polygon fill="lightblue" stroke="black" points="191,-1552.79 126,-1552.79 126,-1516.79 191,-1516.79 191,-1552.79"/>
<text text-anchor="middle" x="158.5" y="-1531.09" font-family="Times,serif" font-size="14.00">C2H2O1</text>
</g>
<!-- node40&#45;&gt;node41 -->
<g id="edge45" class="edge">
<title>node40&#45;&gt;node41</title>
<path fill="none" stroke="black" d="M71.12,-1534.79C84.75,-1534.79 100.87,-1534.79 115.48,-1534.79"/>
<polygon fill="black" stroke="black" points="115.79,-1538.29 125.79,-1534.79 115.79,-1531.29 115.79,-1538.29"/>
<text text-anchor="middle" x="98.5" y="-1538.59" font-family="Times,serif" font-size="14.00">1</text>
</g>
<!-- node42 -->
<g id="node43" class="node">
<title>node42</title>
<polygon fill="lightblue" stroke="black" points="71,-1606.79 6,-1606.79 6,-1570.79 71,-1570.79 71,-1606.79"/>
<text text-anchor="middle" x="38.5" y="-1585.09" font-family="Times,serif" font-size="14.00">C4H3O2</text>
</g>
<!-- node43 -->
<g id="node44" class="node">
<title>node43</title>
<polygon fill="lightblue" stroke="black" points="191,-1606.79 126,-1606.79 126,-1570.79 191,-1570.79 191,-1606.79"/>
<text text-anchor="middle" x="158.5" y="-1585.09" font-family="Times,serif" font-size="14.00">C4H5O1</text>
</g>
<!-- node42&#45;&gt;node43 -->
<g id="edge47" class="edge">
<title>node42&#45;&gt;node43</title>
<path fill="none" stroke="black" d="M71.12,-1588.79C84.75,-1588.79 100.87,-1588.79 115.48,-1588.79"/>
<polygon fill="black" stroke="black" points="115.79,-1592.29 125.79,-1588.79 115.79,-1585.29 115.79,-1592.29"/>
<text text-anchor="middle" x="98.5" y="-1592.59" font-family="Times,serif" font-size="14.00">1</text>
</g>
<!-- node44 -->
<g id="node45" class="node">
<title>node44</title>
<polygon fill="lightblue" stroke="black" points="65.5,-1660.79 11.5,-1660.79 11.5,-1624.79 65.5,-1624.79 65.5,-1660.79"/>
<text text-anchor="middle" x="38.5" y="-1639.09" font-family="Times,serif" font-size="14.00">H5O4</text>
</g>
<!-- node45 -->
<g id="node46" class="node">
<title>node45</title>
<polygon fill="lightblue" stroke="black" points="185.5,-1660.79 131.5,-1660.79 131.5,-1624.79 185.5,-1624.79 185.5,-1660.79"/>
<text text-anchor="middle" x="158.5" y="-1639.09" font-family="Times,serif" font-size="14.00">H3O3</text>
</g>
<!-- node44&#45;&gt;node45 -->
<g id="edge48" class="edge">
<title>node44&#45;&gt;node45</title>
<path fill="none" stroke="black" d="M65.69,-1642.79C82.03,-1642.79 103.31,-1642.79 121.26,-1642.79"/>
<polygon fill="black" stroke="black" points="121.39,-1646.29 131.39,-1642.79 121.39,-1639.29 121.39,-1646.29"/>
<text text-anchor="middle" x="98.5" y="-1646.59" font-family="Times,serif" font-size="14.00">1</text>
</g>
</g>
</svg>
