<?xml version="1.0" encoding="UTF-8" standalone="no"?>
<!DOCTYPE svg PUBLIC "-//W3C//DTD SVG 1.1//EN"
 "http://www.w3.org/Graphics/SVG/1.1/DTD/svg11.dtd">
<!-- Generated by graphviz version 2.43.0 (0)
 -->
<!-- Title: ReactionFlow Pages: 1 -->
<svg width="699pt" height="902pt"
 viewBox="0.00 0.00 699.00 902.00" xmlns="http://www.w3.org/2000/svg" xmlns:xlink="http://www.w3.org/1999/xlink">
<g id="graph0" class="graph" transform="scale(1 1) rotate(0) translate(4 898)">
<title>ReactionFlow</title>
<polygon fill="white" stroke="transparent" points="-4,4 -4,-898 695,-898 695,4 -4,4"/>
<!-- node0 -->
<g id="node1" class="node">
<title>node0</title>
<polygon fill="lightblue" stroke="black" points="59.5,-36 5.5,-36 5.5,0 59.5,0 59.5,-36"/>
<text text-anchor="middle" x="32.5" y="-14.3" font-family="Times,serif" font-size="14.00">O2Fe5</text>
</g>
<!-- node1 -->
<g id="node2" class="node">
<title>node1</title>
<polygon fill="lightblue" stroke="black" points="167.5,-43 113.5,-43 113.5,-7 167.5,-7 167.5,-43"/>
<text text-anchor="middle" x="140.5" y="-21.3" font-family="Times,serif" font-size="14.00">O3Fe5</text>
</g>
<!-- node0&#45;&gt;node1 -->
<g id="edge1" class="edge">
<title>node0&#45;&gt;node1</title>
<path fill="none" stroke="black" d="M59.7,-19.73C72.83,-20.6 88.92,-21.66 103.21,-22.6"/>
<polygon fill="black" stroke="black" points="103.02,-26.1 113.23,-23.27 103.48,-19.11 103.02,-26.1"/>
<text text-anchor="middle" x="86.5" y="-25.8" font-family="Times,serif" font-size="14.00">1</text>
</g>
<!-- node1&#45;&gt;node0 -->
<g id="edge9" class="edge">
<title>node1&#45;&gt;node0</title>
<path fill="none" stroke="black" d="M113.47,-11C106.09,-7.71 97.91,-4.68 90,-3 83.26,-1.57 76.13,-1.95 69.28,-3.29"/>
<polygon fill="black" stroke="black" points="68.33,0.08 59.53,-5.82 70.09,-6.69 68.33,0.08"/>
<text text-anchor="middle" x="86.5" y="-6.8" font-family="Times,serif" font-size="14.00">1</text>
</g>
<!-- node2 -->
<g id="node3" class="node">
<title>node2</title>
<polygon fill="lightblue" stroke="black" points="59.5,-120 5.5,-120 5.5,-84 59.5,-84 59.5,-120"/>
<text text-anchor="middle" x="32.5" y="-98.3" font-family="Times,serif" font-size="14.00">O1Fe3</text>
</g>
<!-- node3 -->
<g id="node4" class="node">
<title>node3</title>
<polygon fill="lightblue" stroke="black" points="167.5,-112 113.5,-112 113.5,-76 167.5,-76 167.5,-112"/>
<text text-anchor="middle" x="140.5" y="-90.3" font-family="Times,serif" font-size="14.00">O1Fe2</text>
</g>
<!-- node2&#45;&gt;node3 -->
<g id="edge2" class="edge">
<title>node2&#45;&gt;node3</title>
<path fill="none" stroke="black" d="M59.68,-100.87C69.23,-100.39 80.11,-99.76 90,-99 94.26,-98.67 98.73,-98.28 103.16,-97.87"/>
<polygon fill="black" stroke="black" points="103.7,-101.33 113.32,-96.88 103.02,-94.37 103.7,-101.33"/>
<text text-anchor="middle" x="86.5" y="-103.8" font-family="Times,serif" font-size="14.00">1</text>
</g>
<!-- node3&#45;&gt;node2 -->
<g id="edge10" class="edge">
<title>node3&#45;&gt;node2</title>
<path fill="none" stroke="black" d="M113.42,-82.49C103.88,-79.61 92.98,-77.88 83,-80 78.3,-81 73.51,-82.47 68.85,-84.19"/>
<polygon fill="black" stroke="black" points="67.46,-80.98 59.53,-88 70.11,-87.46 67.46,-80.98"/>
<text text-anchor="middle" x="86.5" y="-83.8" font-family="Times,serif" font-size="14.00">1</text>
</g>
<!-- node4 -->
<g id="node5" class="node">
<title>node4</title>
<polygon fill="lightblue" stroke="black" points="59.5,-429 5.5,-429 5.5,-393 59.5,-393 59.5,-429"/>
<text text-anchor="middle" x="32.5" y="-407.3" font-family="Times,serif" font-size="14.00">C1O1</text>
</g>
<!-- node5 -->
<g id="node6" class="node">
<title>node5</title>
<polygon fill="lightblue" stroke="black" points="167.5,-375 113.5,-375 113.5,-339 167.5,-339 167.5,-375"/>
<text text-anchor="middle" x="140.5" y="-353.3" font-family="Times,serif" font-size="14.00">C2O1</text>
</g>
<!-- node4&#45;&gt;node5 -->
<g id="edge3" class="edge">
<title>node4&#45;&gt;node5</title>
<path fill="none" stroke="black" d="M59.7,-397.65C73.08,-390.84 89.55,-382.45 104.04,-375.06"/>
<polygon fill="black" stroke="black" points="105.91,-378.04 113.23,-370.38 102.73,-371.8 105.91,-378.04"/>
<text text-anchor="middle" x="86.5" y="-389.8" font-family="Times,serif" font-size="14.00">1</text>
</g>
<!-- node6 -->
<g id="node7" class="node">
<title>node6</title>
<polygon fill="lightblue" stroke="black" points="378,-500 324,-500 324,-464 378,-464 378,-500"/>
<text text-anchor="middle" x="351" y="-478.3" font-family="Times,serif" font-size="14.00">C4O2</text>
</g>
<!-- node5&#45;&gt;node6 -->
<g id="edge4" class="edge">
<title>node5&#45;&gt;node6</title>
<path fill="none" stroke="black" stroke-width="2.39" d="M142.45,-375.02C145.06,-404.94 154.77,-464.67 191,-496 224.72,-525.16 278.85,-512.14 314.42,-498.44"/>
<polygon fill="black" stroke="black" stroke-width="2.39" points="315.97,-501.59 323.93,-494.59 313.35,-495.1 315.97,-501.59"/>
<text text-anchor="middle" x="248.5" y="-516.8" font-family="Times,serif" font-size="14.00">4</text>
</g>
<!-- node10 -->
<g id="node11" class="node">
<title>node10</title>
<polygon fill="lightblue" stroke="black" points="275.5,-204 221.5,-204 221.5,-168 275.5,-168 275.5,-204"/>
<text text-anchor="middle" x="248.5" y="-182.3" font-family="Times,serif" font-size="14.00">C3O1</text>
</g>
<!-- node5&#45;&gt;node10 -->
<g id="edge21" class="edge">
<title>node5&#45;&gt;node10</title>
<path fill="none" stroke="black" stroke-width="2.39" d="M147,-338.97C154.64,-315.58 169.95,-274.09 191,-243 198.71,-231.62 208.86,-220.55 218.44,-211.24"/>
<polygon fill="black" stroke="black" stroke-width="2.39" points="221.05,-213.58 225.93,-204.17 216.25,-208.48 221.05,-213.58"/>
<text text-anchor="middle" x="194.5" y="-246.8" font-family="Times,serif" font-size="14.00">4</text>
</g>
<!-- node15 -->
<g id="node16" class="node">
<title>node15</title>
<polygon fill="lightblue" stroke="black" points="275.5,-374 221.5,-374 221.5,-338 275.5,-338 275.5,-374"/>
<text text-anchor="middle" x="248.5" y="-352.3" font-family="Times,serif" font-size="14.00">C5O2</text>
</g>
<!-- node5&#45;&gt;node15 -->
<g id="edge13" class="edge">
<title>node5&#45;&gt;node15</title>
<path fill="none" stroke="black" stroke-width="1.69" d="M167.75,-345.53C175.13,-342.84 183.26,-340.36 191,-339 197.78,-337.81 204.89,-338.41 211.69,-339.95"/>
<polygon fill="black" stroke="black" stroke-width="1.69" points="210.79,-343.33 221.37,-342.78 212.75,-336.61 210.79,-343.33"/>
<text text-anchor="middle" x="194.5" y="-342.8" font-family="Times,serif" font-size="14.00">2</text>
</g>
<!-- node18 -->
<g id="node19" class="node">
<title>node18</title>
<polygon fill="lightblue" stroke="black" points="275.5,-446 221.5,-446 221.5,-410 275.5,-410 275.5,-446"/>
<text text-anchor="middle" x="248.5" y="-424.3" font-family="Times,serif" font-size="14.00">C6O2</text>
</g>
<!-- node5&#45;&gt;node18 -->
<g id="edge18" class="edge">
<title>node5&#45;&gt;node18</title>
<path fill="none" stroke="black" d="M167.7,-374.55C181.33,-383.68 198.18,-394.96 212.87,-404.8"/>
<polygon fill="black" stroke="black" points="210.98,-407.75 221.23,-410.41 214.87,-401.93 210.98,-407.75"/>
<text text-anchor="middle" x="194.5" y="-398.8" font-family="Times,serif" font-size="14.00">1</text>
</g>
<!-- node23 -->
<g id="node24" class="node">
<title>node23</title>
<polygon fill="lightblue" stroke="black" points="275.5,-291 221.5,-291 221.5,-255 275.5,-255 275.5,-291"/>
<text text-anchor="middle" x="248.5" y="-269.3" font-family="Times,serif" font-size="14.00">C2O2</text>
</g>
<!-- node5&#45;&gt;node23 -->
<g id="edge25" class="edge">
<title>node5&#45;&gt;node23</title>
<path fill="none" stroke="black" d="M164.24,-338.98C179.5,-326.88 199.81,-310.79 216.54,-297.53"/>
<polygon fill="black" stroke="black" points="218.77,-300.23 224.43,-291.28 214.42,-294.75 218.77,-300.23"/>
<text text-anchor="middle" x="194.5" y="-321.8" font-family="Times,serif" font-size="14.00">1</text>
</g>
<!-- node6&#45;&gt;node5 -->
<g id="edge12" class="edge">
<title>node6&#45;&gt;node5</title>
<path fill="none" stroke="black" stroke-width="2.39" d="M323.83,-480.02C296.08,-477.19 251.45,-470.47 216,-455 185.7,-441.78 164.82,-408.75 153.03,-384.69"/>
<polygon fill="black" stroke="black" stroke-width="2.39" points="156.07,-382.91 148.68,-375.32 149.72,-385.87 156.07,-382.91"/>
<text text-anchor="middle" x="248.5" y="-476.8" font-family="Times,serif" font-size="14.00">4</text>
</g>
<!-- node7 -->
<g id="node8" class="node">
<title>node7</title>
<polygon fill="lightblue" stroke="black" points="167.5,-678 113.5,-678 113.5,-642 167.5,-642 167.5,-678"/>
<text text-anchor="middle" x="140.5" y="-656.3" font-family="Times,serif" font-size="14.00">C4H2</text>
</g>
<!-- node8 -->
<g id="node9" class="node">
<title>node8</title>
<polygon fill="lightblue" stroke="black" points="275.5,-667 221.5,-667 221.5,-631 275.5,-631 275.5,-667"/>
<text text-anchor="middle" x="248.5" y="-645.3" font-family="Times,serif" font-size="14.00">C2H1</text>
</g>
<!-- node7&#45;&gt;node8 -->
<g id="edge5" class="edge">
<title>node7&#45;&gt;node8</title>
<path fill="none" stroke="black" stroke-width="2.1" d="M167.7,-657.28C180.83,-655.92 196.92,-654.25 211.21,-652.77"/>
<polygon fill="black" stroke="black" stroke-width="2.1" points="211.65,-656.24 221.23,-651.73 210.92,-649.28 211.65,-656.24"/>
<text text-anchor="middle" x="194.5" y="-657.8" font-family="Times,serif" font-size="14.00">3</text>
</g>
<!-- node9 -->
<g id="node10" class="node">
<title>node9</title>
<polygon fill="lightblue" stroke="black" points="378,-701 324,-701 324,-665 378,-665 378,-701"/>
<text text-anchor="middle" x="351" y="-679.3" font-family="Times,serif" font-size="14.00">C1H1</text>
</g>
<!-- node8&#45;&gt;node9 -->
<g id="edge6" class="edge">
<title>node8&#45;&gt;node9</title>
<path fill="none" stroke="black" stroke-width="2.61" d="M275.64,-657.84C287.39,-661.82 301.44,-666.57 314.15,-670.87"/>
<polygon fill="black" stroke="black" stroke-width="2.61" points="313.39,-674.31 323.99,-674.2 315.64,-667.68 313.39,-674.31"/>
<text text-anchor="middle" x="302.5" y="-671.8" font-family="Times,serif" font-size="14.00">5</text>
</g>
<!-- node11 -->
<g id="node12" class="node">
<title>node11</title>
<polygon fill="lightblue" stroke="black" points="583,-650 529,-650 529,-614 583,-614 583,-650"/>
<text text-anchor="middle" x="556" y="-628.3" font-family="Times,serif" font-size="14.00">C3H1</text>
</g>
<!-- node8&#45;&gt;node11 -->
<g id="edge30" class="edge">
<title>node8&#45;&gt;node11</title>
<path fill="none" stroke="black" d="M275.63,-644.22C283.15,-643 291.38,-641.8 299,-641 376.88,-632.82 468.73,-631.63 518.5,-631.69"/>
<polygon fill="black" stroke="black" points="518.74,-635.19 528.75,-631.72 518.76,-628.19 518.74,-635.19"/>
<text text-anchor="middle" x="399.5" y="-637.8" font-family="Times,serif" font-size="14.00">1</text>
</g>
<!-- node9&#45;&gt;node8 -->
<g id="edge16" class="edge">
<title>node9&#45;&gt;node8</title>
<path fill="none" stroke="black" stroke-width="1.69" d="M333.37,-664.79C325.79,-657.81 316.22,-650.65 306,-647 299.75,-644.77 292.86,-643.86 286.11,-643.72"/>
<polygon fill="black" stroke="black" stroke-width="1.69" points="285.6,-640.24 275.72,-644.07 285.83,-647.23 285.6,-640.24"/>
<text text-anchor="middle" x="302.5" y="-650.8" font-family="Times,serif" font-size="14.00">2</text>
</g>
<!-- node17 -->
<g id="node18" class="node">
<title>node17</title>
<polygon fill="lightblue" stroke="black" points="486,-734 421,-734 421,-698 486,-698 486,-734"/>
<text text-anchor="middle" x="453.5" y="-712.3" font-family="Times,serif" font-size="14.00">C1H2O1</text>
</g>
<!-- node9&#45;&gt;node17 -->
<g id="edge17" class="edge">
<title>node9&#45;&gt;node17</title>
<path fill="none" stroke="black" d="M378.14,-691.58C388.22,-694.89 399.99,-698.76 411.15,-702.42"/>
<polygon fill="black" stroke="black" points="410.16,-705.78 420.75,-705.58 412.34,-699.13 410.16,-705.78"/>
<text text-anchor="middle" x="399.5" y="-702.8" font-family="Times,serif" font-size="14.00">1</text>
</g>
<!-- node21 -->
<g id="node22" class="node">
<title>node21</title>
<polygon fill="lightblue" stroke="black" points="480.5,-680 426.5,-680 426.5,-644 480.5,-644 480.5,-680"/>
<text text-anchor="middle" x="453.5" y="-658.3" font-family="Times,serif" font-size="14.00">C3H2</text>
</g>
<!-- node9&#45;&gt;node21 -->
<g id="edge32" class="edge">
<title>node9&#45;&gt;node21</title>
<path fill="none" stroke="black" d="M378.14,-677.54C389.89,-675.08 403.94,-672.15 416.65,-669.49"/>
<polygon fill="black" stroke="black" points="417.42,-672.91 426.49,-667.44 415.98,-666.05 417.42,-672.91"/>
<text text-anchor="middle" x="399.5" y="-676.8" font-family="Times,serif" font-size="14.00">1</text>
</g>
<!-- node10&#45;&gt;node5 -->
<g id="edge7" class="edge">
<title>node10&#45;&gt;node5</title>
<path fill="none" stroke="black" stroke-width="2.1" d="M235.03,-204.02C223.35,-221.08 205.55,-247.5 191,-271 178.99,-290.4 166.15,-312.75 156.56,-329.8"/>
<polygon fill="black" stroke="black" stroke-width="2.1" points="153.42,-328.24 151.59,-338.68 159.53,-331.66 153.42,-328.24"/>
<text text-anchor="middle" x="194.5" y="-274.8" font-family="Times,serif" font-size="14.00">3</text>
</g>
<!-- node12 -->
<g id="node13" class="node">
<title>node12</title>
<polygon fill="lightblue" stroke="black" points="691,-650 626,-650 626,-614 691,-614 691,-650"/>
<text text-anchor="middle" x="658.5" y="-628.3" font-family="Times,serif" font-size="14.00">C4H2O1</text>
</g>
<!-- node11&#45;&gt;node12 -->
<g id="edge8" class="edge">
<title>node11&#45;&gt;node12</title>
<path fill="none" stroke="black" d="M583.14,-632C593.02,-632 604.52,-632 615.48,-632"/>
<polygon fill="black" stroke="black" points="615.75,-635.5 625.75,-632 615.75,-628.5 615.75,-635.5"/>
<text text-anchor="middle" x="604.5" y="-635.8" font-family="Times,serif" font-size="14.00">1</text>
</g>
<!-- node13 -->
<g id="node14" class="node">
<title>node13</title>
<polygon fill="lightblue" stroke="black" points="65,-613 0,-613 0,-577 65,-577 65,-613"/>
<text text-anchor="middle" x="32.5" y="-591.3" font-family="Times,serif" font-size="14.00">C4H3O2</text>
</g>
<!-- node14 -->
<g id="node15" class="node">
<title>node14</title>
<polygon fill="lightblue" stroke="black" points="173,-613 108,-613 108,-577 173,-577 173,-613"/>
<text text-anchor="middle" x="140.5" y="-591.3" font-family="Times,serif" font-size="14.00">C2H2O2</text>
</g>
<!-- node13&#45;&gt;node14 -->
<g id="edge11" class="edge">
<title>node13&#45;&gt;node14</title>
<path fill="none" stroke="black" d="M65.02,-595C75.28,-595 86.84,-595 97.74,-595"/>
<polygon fill="black" stroke="black" points="97.92,-598.5 107.92,-595 97.92,-591.5 97.92,-598.5"/>
<text text-anchor="middle" x="86.5" y="-598.8" font-family="Times,serif" font-size="14.00">1</text>
</g>
<!-- node14&#45;&gt;node8 -->
<g id="edge14" class="edge">
<title>node14&#45;&gt;node8</title>
<path fill="none" stroke="black" d="M173.02,-611.06C185.39,-617.36 199.65,-624.62 212.35,-631.1"/>
<polygon fill="black" stroke="black" points="210.78,-634.22 221.28,-635.64 213.96,-627.99 210.78,-634.22"/>
<text text-anchor="middle" x="194.5" y="-626.8" font-family="Times,serif" font-size="14.00">1</text>
</g>
<!-- node16 -->
<g id="node17" class="node">
<title>node16</title>
<polygon fill="lightblue" stroke="black" points="281,-602 216,-602 216,-566 281,-566 281,-602"/>
<text text-anchor="middle" x="248.5" y="-580.3" font-family="Times,serif" font-size="14.00">C2H1O1</text>
</g>
<!-- node14&#45;&gt;node16 -->
<g id="edge15" class="edge">
<title>node14&#45;&gt;node16</title>
<path fill="none" stroke="black" d="M173.05,-587.74C178.99,-586.62 185.16,-585.64 191,-585 195.75,-584.48 200.73,-584.13 205.7,-583.89"/>
<polygon fill="black" stroke="black" points="205.88,-587.38 215.76,-583.55 205.65,-580.39 205.88,-587.38"/>
<text text-anchor="middle" x="194.5" y="-588.8" font-family="Times,serif" font-size="14.00">1</text>
</g>
<!-- node15&#45;&gt;node5 -->
<g id="edge26" class="edge">
<title>node15&#45;&gt;node5</title>
<path fill="none" stroke="black" d="M221.23,-356.25C208.1,-356.37 192,-356.52 177.71,-356.66"/>
<polygon fill="black" stroke="black" points="177.67,-353.16 167.7,-356.75 177.73,-360.16 177.67,-353.16"/>
<text text-anchor="middle" x="194.5" y="-360.8" font-family="Times,serif" font-size="14.00">1</text>
</g>
<!-- node18&#45;&gt;node5 -->
<g id="edge24" class="edge">
<title>node18&#45;&gt;node5</title>
<path fill="none" stroke="black" d="M221.45,-424.97C211.39,-422.95 200.14,-419.59 191,-414 178.35,-406.26 167.21,-394.22 158.72,-383.2"/>
<polygon fill="black" stroke="black" points="161.49,-381.06 152.76,-375.06 155.84,-385.2 161.49,-381.06"/>
<text text-anchor="middle" x="194.5" y="-421.8" font-family="Times,serif" font-size="14.00">1</text>
</g>
<!-- node18&#45;&gt;node6 -->
<g id="edge19" class="edge">
<title>node18&#45;&gt;node6</title>
<path fill="none" stroke="black" d="M275.53,-438.44C285.26,-442.63 296.3,-447.71 306,-453 309.06,-454.67 312.19,-456.49 315.3,-458.37"/>
<polygon fill="black" stroke="black" points="313.58,-461.43 323.91,-463.79 317.31,-455.5 313.58,-461.43"/>
<text text-anchor="middle" x="302.5" y="-456.8" font-family="Times,serif" font-size="14.00">1</text>
</g>
<!-- node19 -->
<g id="node20" class="node">
<title>node19</title>
<polygon fill="lightblue" stroke="black" points="59.5,-759 5.5,-759 5.5,-723 59.5,-723 59.5,-759"/>
<text text-anchor="middle" x="32.5" y="-737.3" font-family="Times,serif" font-size="14.00">H1N1</text>
</g>
<!-- node20 -->
<g id="node21" class="node">
<title>node20</title>
<polygon fill="lightblue" stroke="black" points="167.5,-786 113.5,-786 113.5,-750 167.5,-750 167.5,-786"/>
<text text-anchor="middle" x="140.5" y="-764.3" font-family="Times,serif" font-size="14.00">H3N1</text>
</g>
<!-- node19&#45;&gt;node20 -->
<g id="edge20" class="edge">
<title>node19&#45;&gt;node20</title>
<path fill="none" stroke="black" d="M59.7,-747.67C72.83,-751.02 88.92,-755.12 103.21,-758.76"/>
<polygon fill="black" stroke="black" points="102.68,-762.23 113.23,-761.31 104.41,-755.45 102.68,-762.23"/>
<text text-anchor="middle" x="86.5" y="-758.8" font-family="Times,serif" font-size="14.00">1</text>
</g>
<!-- node30 -->
<g id="node31" class="node">
<title>node30</title>
<polygon fill="lightblue" stroke="black" points="167.5,-732 113.5,-732 113.5,-696 167.5,-696 167.5,-732"/>
<text text-anchor="middle" x="140.5" y="-710.3" font-family="Times,serif" font-size="14.00">H2N1</text>
</g>
<!-- node19&#45;&gt;node30 -->
<g id="edge34" class="edge">
<title>node19&#45;&gt;node30</title>
<path fill="none" stroke="black" d="M59.7,-734.33C72.83,-730.98 88.92,-726.88 103.21,-723.24"/>
<polygon fill="black" stroke="black" points="104.41,-726.55 113.23,-720.69 102.68,-719.77 104.41,-726.55"/>
<text text-anchor="middle" x="86.5" y="-731.8" font-family="Times,serif" font-size="14.00">1</text>
</g>
<!-- node21&#45;&gt;node11 -->
<g id="edge22" class="edge">
<title>node21&#45;&gt;node11</title>
<path fill="none" stroke="black" d="M480.64,-654.2C492.39,-650.69 506.44,-646.49 519.15,-642.7"/>
<polygon fill="black" stroke="black" points="520.41,-645.98 528.99,-639.76 518.4,-639.27 520.41,-645.98"/>
<text text-anchor="middle" x="507.5" y="-650.8" font-family="Times,serif" font-size="14.00">1</text>
</g>
<!-- node22 -->
<g id="node23" class="node">
<title>node22</title>
<polygon fill="lightblue" stroke="black" points="59.5,-375 5.5,-375 5.5,-339 59.5,-339 59.5,-375"/>
<text text-anchor="middle" x="32.5" y="-353.3" font-family="Times,serif" font-size="14.00">C4O1</text>
</g>
<!-- node22&#45;&gt;node5 -->
<g id="edge23" class="edge">
<title>node22&#45;&gt;node5</title>
<path fill="none" stroke="black" d="M59.7,-357C72.83,-357 88.92,-357 103.21,-357"/>
<polygon fill="black" stroke="black" points="103.23,-360.5 113.23,-357 103.23,-353.5 103.23,-360.5"/>
<text text-anchor="middle" x="86.5" y="-360.8" font-family="Times,serif" font-size="14.00">1</text>
</g>
<!-- node23&#45;&gt;node5 -->
<g id="edge27" class="edge">
<title>node23&#45;&gt;node5</title>
<path fill="none" stroke="black" d="M221.27,-279.45C211.19,-282.74 199.96,-287.46 191,-294 177.8,-303.63 166.29,-317.69 157.7,-330.09"/>
<polygon fill="black" stroke="black" points="154.58,-328.46 151.98,-338.73 160.41,-332.32 154.58,-328.46"/>
<text text-anchor="middle" x="194.5" y="-297.8" font-family="Times,serif" font-size="14.00">1</text>
</g>
<!-- node24 -->
<g id="node25" class="node">
<title>node24</title>
<polygon fill="lightblue" stroke="black" points="173,-166 108,-166 108,-130 173,-130 173,-166"/>
<text text-anchor="middle" x="140.5" y="-144.3" font-family="Times,serif" font-size="14.00">C8H2O1</text>
</g>
<!-- node24&#45;&gt;node10 -->
<g id="edge28" class="edge">
<title>node24&#45;&gt;node10</title>
<path fill="none" stroke="black" d="M173.18,-145.13C181.44,-145.31 190.2,-146.33 198,-149 205.99,-151.74 213.75,-156.29 220.67,-161.28"/>
<polygon fill="black" stroke="black" points="218.89,-164.34 228.93,-167.74 223.2,-158.83 218.89,-164.34"/>
<text text-anchor="middle" x="194.5" y="-152.8" font-family="Times,serif" font-size="14.00">1</text>
</g>
<!-- node25 -->
<g id="node26" class="node">
<title>node25</title>
<polygon fill="lightblue" stroke="black" points="59.5,-840 5.5,-840 5.5,-804 59.5,-804 59.5,-840"/>
<text text-anchor="middle" x="32.5" y="-818.3" font-family="Times,serif" font-size="14.00">C4</text>
</g>
<!-- node26 -->
<g id="node27" class="node">
<title>node26</title>
<polygon fill="lightblue" stroke="black" points="167.5,-840 113.5,-840 113.5,-804 167.5,-804 167.5,-840"/>
<text text-anchor="middle" x="140.5" y="-818.3" font-family="Times,serif" font-size="14.00">C2</text>
</g>
<!-- node25&#45;&gt;node26 -->
<g id="edge29" class="edge">
<title>node25&#45;&gt;node26</title>
<path fill="none" stroke="black" d="M59.7,-822C72.83,-822 88.92,-822 103.21,-822"/>
<polygon fill="black" stroke="black" points="103.23,-825.5 113.23,-822 103.23,-818.5 103.23,-825.5"/>
<text text-anchor="middle" x="86.5" y="-825.8" font-family="Times,serif" font-size="14.00">1</text>
</g>
<!-- node27 -->
<g id="node28" class="node">
<title>node27</title>
<polygon fill="lightblue" stroke="black" points="65,-894 0,-894 0,-858 65,-858 65,-894"/>
<text text-anchor="middle" x="32.5" y="-872.3" font-family="Times,serif" font-size="14.00">C2H1O3</text>
</g>
<!-- node28 -->
<g id="node29" class="node">
<title>node28</title>
<polygon fill="lightblue" stroke="black" points="167.5,-894 113.5,-894 113.5,-858 167.5,-858 167.5,-894"/>
<text text-anchor="middle" x="140.5" y="-872.3" font-family="Times,serif" font-size="14.00">H1O2</text>
</g>
<!-- node27&#45;&gt;node28 -->
<g id="edge31" class="edge">
<title>node27&#45;&gt;node28</title>
<path fill="none" stroke="black" d="M65.02,-876C77.03,-876 90.82,-876 103.24,-876"/>
<polygon fill="black" stroke="black" points="103.28,-879.5 113.28,-876 103.28,-872.5 103.28,-879.5"/>
<text text-anchor="middle" x="86.5" y="-879.8" font-family="Times,serif" font-size="14.00">1</text>
</g>
<!-- node29 -->
<g id="node30" class="node">
<title>node29</title>
<polygon fill="lightblue" stroke="black" points="65,-321 0,-321 0,-285 65,-285 65,-321"/>
<text text-anchor="middle" x="32.5" y="-299.3" font-family="Times,serif" font-size="14.00">C5H1O2</text>
</g>
<!-- node29&#45;&gt;node5 -->
<g id="edge33" class="edge">
<title>node29&#45;&gt;node5</title>
<path fill="none" stroke="black" d="M65.02,-319.06C77.39,-325.36 91.65,-332.62 104.35,-339.1"/>
<polygon fill="black" stroke="black" points="102.78,-342.22 113.28,-343.64 105.96,-335.99 102.78,-342.22"/>
<text text-anchor="middle" x="86.5" y="-335.8" font-family="Times,serif" font-size="14.00">1</text>
</g>
</g>
</svg>
