<?xml version="1.0" encoding="UTF-8" standalone="no"?>
<!DOCTYPE svg PUBLIC "-//W3C//DTD SVG 1.1//EN"
 "http://www.w3.org/Graphics/SVG/1.1/DTD/svg11.dtd">
<!-- Generated by graphviz version 2.43.0 (0)
 -->
<!-- Title: ReactionFlow Pages: 1 -->
<svg width="979pt" height="1050pt"
 viewBox="0.00 0.00 979.00 1050.00" xmlns="http://www.w3.org/2000/svg" xmlns:xlink="http://www.w3.org/1999/xlink">
<g id="graph0" class="graph" transform="scale(1 1) rotate(0) translate(4 1046)">
<title>ReactionFlow</title>
<polygon fill="white" stroke="transparent" points="-4,4 -4,-1046 975,-1046 975,4 -4,4"/>
<!-- node0 -->
<g id="node1" class="node">
<title>node0</title>
<polygon fill="lightblue" stroke="black" points="178,-182 124,-182 124,-146 178,-146 178,-182"/>
<text text-anchor="middle" x="151" y="-160.3" font-family="Times,serif" font-size="14.00">C2O1</text>
</g>
<!-- node1 -->
<g id="node2" class="node">
<title>node1</title>
<polygon fill="lightblue" stroke="black" points="749.5,-703 695.5,-703 695.5,-667 749.5,-667 749.5,-703"/>
<text text-anchor="middle" x="722.5" y="-681.3" font-family="Times,serif" font-size="14.00">C1O1</text>
</g>
<!-- node0&#45;&gt;node1 -->
<g id="edge1" class="edge">
<title>node0&#45;&gt;node1</title>
<path fill="none" stroke="black" stroke-width="2.61" d="M152.03,-182.21C152.67,-276.19 161.59,-702 270.5,-702 270.5,-702 270.5,-702 615.5,-702 638.94,-702 664.93,-697.9 685.31,-693.72"/>
<polygon fill="black" stroke="black" stroke-width="2.61" points="686.07,-697.14 695.11,-691.62 684.6,-690.29 686.07,-697.14"/>
<text text-anchor="middle" x="460" y="-705.8" font-family="Times,serif" font-size="14.00">5</text>
</g>
<!-- node2 -->
<g id="node3" class="node">
<title>node2</title>
<polygon fill="lightblue" stroke="black" points="298.5,-399 244.5,-399 244.5,-363 298.5,-363 298.5,-399"/>
<text text-anchor="middle" x="271.5" y="-377.3" font-family="Times,serif" font-size="14.00">C2</text>
</g>
<!-- node0&#45;&gt;node2 -->
<g id="edge2" class="edge">
<title>node0&#45;&gt;node2</title>
<path fill="none" stroke="black" stroke-width="2.39" d="M161.12,-182.04C176.37,-211.99 208.18,-273.76 237,-325 242.42,-334.63 248.57,-345.04 254.1,-354.25"/>
<polygon fill="black" stroke="black" stroke-width="2.39" points="251.22,-356.24 259.39,-362.98 257.21,-352.62 251.22,-356.24"/>
<text text-anchor="middle" x="215.5" y="-294.8" font-family="Times,serif" font-size="14.00">4</text>
</g>
<!-- node20 -->
<g id="node21" class="node">
<title>node20</title>
<polygon fill="lightblue" stroke="black" points="304,-198 239,-198 239,-162 304,-162 304,-198"/>
<text text-anchor="middle" x="271.5" y="-176.3" font-family="Times,serif" font-size="14.00">C3H1O1</text>
</g>
<!-- node0&#45;&gt;node20 -->
<g id="edge24" class="edge">
<title>node0&#45;&gt;node20</title>
<path fill="none" stroke="black" stroke-width="2.1" d="M178.28,-172.6C188.67,-175.57 200.78,-178.53 212,-180 217.41,-180.71 223.13,-181.12 228.79,-181.33"/>
<polygon fill="black" stroke="black" stroke-width="2.1" points="228.77,-184.83 238.83,-181.5 228.89,-177.83 228.77,-184.83"/>
<text text-anchor="middle" x="215.5" y="-184.8" font-family="Times,serif" font-size="14.00">3</text>
</g>
<!-- node21 -->
<g id="node22" class="node">
<title>node21</title>
<polygon fill="lightblue" stroke="black" points="298.5,-144 244.5,-144 244.5,-108 298.5,-108 298.5,-144"/>
<text text-anchor="middle" x="271.5" y="-122.3" font-family="Times,serif" font-size="14.00">C3O2</text>
</g>
<!-- node0&#45;&gt;node21 -->
<g id="edge25" class="edge">
<title>node0&#45;&gt;node21</title>
<path fill="none" stroke="black" stroke-width="1.69" d="M178.01,-155.66C194.56,-150.35 216.24,-143.4 234.44,-137.56"/>
<polygon fill="black" stroke="black" stroke-width="1.69" points="235.69,-140.84 244.15,-134.45 233.55,-134.17 235.69,-140.84"/>
<text text-anchor="middle" x="215.5" y="-147.8" font-family="Times,serif" font-size="14.00">2</text>
</g>
<!-- node32 -->
<g id="node33" class="node">
<title>node32</title>
<polygon fill="lightblue" stroke="black" points="306,-90 237,-90 237,-54 306,-54 306,-90"/>
<text text-anchor="middle" x="271.5" y="-68.3" font-family="Times,serif" font-size="14.00">C2O1Fe1</text>
</g>
<!-- node0&#45;&gt;node32 -->
<g id="edge38" class="edge">
<title>node0&#45;&gt;node32</title>
<path fill="none" stroke="black" d="M175.41,-145.82C193.67,-131.65 219.2,-111.83 239.21,-96.29"/>
<polygon fill="black" stroke="black" points="241.38,-99.04 247.14,-90.14 237.09,-93.51 241.38,-99.04"/>
<text text-anchor="middle" x="215.5" y="-119.8" font-family="Times,serif" font-size="14.00">1</text>
</g>
<!-- node36 -->
<g id="node37" class="node">
<title>node36</title>
<polygon fill="lightblue" stroke="black" points="298.5,-36 244.5,-36 244.5,0 298.5,0 298.5,-36"/>
<text text-anchor="middle" x="271.5" y="-14.3" font-family="Times,serif" font-size="14.00">C4O1</text>
</g>
<!-- node0&#45;&gt;node36 -->
<g id="edge43" class="edge">
<title>node0&#45;&gt;node36</title>
<path fill="none" stroke="black" d="M162.73,-145.92C177.66,-121.56 206.33,-77.5 237,-45 237.63,-44.33 238.27,-43.67 238.93,-43.01"/>
<polygon fill="black" stroke="black" points="241.41,-45.48 246.36,-36.12 236.65,-40.35 241.41,-45.48"/>
<text text-anchor="middle" x="215.5" y="-76.8" font-family="Times,serif" font-size="14.00">1</text>
</g>
<!-- node4 -->
<g id="node5" class="node">
<title>node4</title>
<polygon fill="lightblue" stroke="black" points="419,-426 365,-426 365,-390 419,-390 419,-426"/>
<text text-anchor="middle" x="392" y="-404.3" font-family="Times,serif" font-size="14.00">C2H1</text>
</g>
<!-- node2&#45;&gt;node4 -->
<g id="edge11" class="edge">
<title>node2&#45;&gt;node4</title>
<path fill="none" stroke="black" d="M298.51,-386.93C314.98,-390.68 336.54,-395.59 354.69,-399.73"/>
<polygon fill="black" stroke="black" points="354.12,-403.19 364.65,-402 355.67,-396.36 354.12,-403.19"/>
<text text-anchor="middle" x="327.5" y="-397.8" font-family="Times,serif" font-size="14.00">1</text>
</g>
<!-- node3 -->
<g id="node4" class="node">
<title>node3</title>
<polygon fill="lightblue" stroke="black" points="539,-576 485,-576 485,-540 539,-540 539,-576"/>
<text text-anchor="middle" x="512" y="-554.3" font-family="Times,serif" font-size="14.00">C1H1</text>
</g>
<!-- node3&#45;&gt;node4 -->
<g id="edge3" class="edge">
<title>node3&#45;&gt;node4</title>
<path fill="none" stroke="black" stroke-width="3.56" d="M484.99,-552.73C474.05,-549.44 461.85,-544.2 453,-536 423.82,-508.96 407.54,-464.84 399.52,-436.12"/>
<polygon fill="black" stroke="black" stroke-width="3.56" points="402.86,-435.07 396.93,-426.29 396.09,-436.85 402.86,-435.07"/>
<text text-anchor="middle" x="460" y="-549.8" font-family="Times,serif" font-size="14.00">13</text>
</g>
<!-- node19 -->
<g id="node20" class="node">
<title>node19</title>
<polygon fill="lightblue" stroke="black" points="647,-614 582,-614 582,-578 647,-578 647,-614"/>
<text text-anchor="middle" x="614.5" y="-592.3" font-family="Times,serif" font-size="14.00">C1H1O1</text>
</g>
<!-- node3&#45;&gt;node19 -->
<g id="edge31" class="edge">
<title>node3&#45;&gt;node19</title>
<path fill="none" stroke="black" d="M539.14,-567.88C549.22,-571.69 560.99,-576.15 572.15,-580.37"/>
<polygon fill="black" stroke="black" points="571.16,-583.73 581.75,-584 573.64,-577.19 571.16,-583.73"/>
<text text-anchor="middle" x="560.5" y="-580.8" font-family="Times,serif" font-size="14.00">1</text>
</g>
<!-- node4&#45;&gt;node3 -->
<g id="edge10" class="edge">
<title>node4&#45;&gt;node3</title>
<path fill="none" stroke="black" stroke-width="3.83" d="M403.82,-426.26C415.19,-444.93 434.03,-474.46 453,-498 462.66,-509.98 474.28,-522.35 484.58,-532.72"/>
<polygon fill="black" stroke="black" stroke-width="3.83" points="482.24,-535.33 491.8,-539.89 487.17,-530.36 482.24,-535.33"/>
<text text-anchor="middle" x="460" y="-517.8" font-family="Times,serif" font-size="14.00">17</text>
</g>
<!-- node5 -->
<g id="node6" class="node">
<title>node5</title>
<polygon fill="lightblue" stroke="black" points="539,-360 485,-360 485,-324 539,-324 539,-360"/>
<text text-anchor="middle" x="512" y="-338.3" font-family="Times,serif" font-size="14.00">C3H2</text>
</g>
<!-- node4&#45;&gt;node5 -->
<g id="edge8" class="edge">
<title>node4&#45;&gt;node5</title>
<path fill="none" stroke="black" stroke-width="2.79" d="M406.07,-389.8C416.97,-376.14 433.78,-358.25 453,-349 459.72,-345.76 467.37,-343.81 474.86,-342.67"/>
<polygon fill="black" stroke="black" stroke-width="2.79" points="475.31,-346.14 484.87,-341.57 474.54,-339.18 475.31,-346.14"/>
<text text-anchor="middle" x="460" y="-352.8" font-family="Times,serif" font-size="14.00">6</text>
</g>
<!-- node13 -->
<g id="node14" class="node">
<title>node13</title>
<polygon fill="lightblue" stroke="black" points="641.5,-370 587.5,-370 587.5,-334 641.5,-334 641.5,-370"/>
<text text-anchor="middle" x="614.5" y="-348.3" font-family="Times,serif" font-size="14.00">C3H1</text>
</g>
<!-- node4&#45;&gt;node13 -->
<g id="edge19" class="edge">
<title>node4&#45;&gt;node13</title>
<path fill="none" stroke="black" stroke-width="2.1" d="M419.13,-403.18C433.34,-400.43 451.2,-396.8 467,-393 510.51,-382.55 520.91,-378.09 564,-366 568.37,-364.77 572.97,-363.48 577.51,-362.2"/>
<polygon fill="black" stroke="black" stroke-width="2.1" points="578.63,-365.52 587.3,-359.43 576.73,-358.78 578.63,-365.52"/>
<text text-anchor="middle" x="512" y="-392.8" font-family="Times,serif" font-size="14.00">3</text>
</g>
<!-- node14 -->
<g id="node15" class="node">
<title>node14</title>
<polygon fill="lightblue" stroke="black" points="755,-538 690,-538 690,-502 755,-502 755,-538"/>
<text text-anchor="middle" x="722.5" y="-516.3" font-family="Times,serif" font-size="14.00">C2H2O1</text>
</g>
<!-- node4&#45;&gt;node14 -->
<g id="edge17" class="edge">
<title>node4&#45;&gt;node14</title>
<path fill="none" stroke="black" d="M407.96,-426.06C419.12,-438.34 435.41,-453.94 453,-463 527.03,-501.12 625.09,-513.76 679.89,-517.94"/>
<polygon fill="black" stroke="black" points="679.71,-521.44 689.93,-518.65 680.2,-514.45 679.71,-521.44"/>
<text text-anchor="middle" x="560.5" y="-504.8" font-family="Times,serif" font-size="14.00">1</text>
</g>
<!-- node5&#45;&gt;node4 -->
<g id="edge4" class="edge">
<title>node5&#45;&gt;node4</title>
<path fill="none" stroke="black" stroke-width="3.2" d="M484.89,-356.61C468.25,-365.91 446.49,-378.08 428.32,-388.25"/>
<polygon fill="black" stroke="black" stroke-width="3.2" points="426.21,-385.42 419.19,-393.35 429.62,-391.53 426.21,-385.42"/>
<text text-anchor="middle" x="460" y="-377.8" font-family="Times,serif" font-size="14.00">9</text>
</g>
<!-- node5&#45;&gt;node13 -->
<g id="edge13" class="edge">
<title>node5&#45;&gt;node13</title>
<path fill="none" stroke="black" stroke-width="1.69" d="M539.14,-344.6C550.77,-345.76 564.67,-347.14 577.27,-348.4"/>
<polygon fill="black" stroke="black" stroke-width="1.69" points="577.19,-351.9 587.49,-349.41 577.88,-344.94 577.19,-351.9"/>
<text text-anchor="middle" x="560.5" y="-350.8" font-family="Times,serif" font-size="14.00">2</text>
</g>
<!-- node25 -->
<g id="node26" class="node">
<title>node25</title>
<polygon fill="lightblue" stroke="black" points="965.5,-293 911.5,-293 911.5,-257 965.5,-257 965.5,-293"/>
<text text-anchor="middle" x="938.5" y="-271.3" font-family="Times,serif" font-size="14.00">C4H3</text>
</g>
<!-- node5&#45;&gt;node25 -->
<g id="edge28" class="edge">
<title>node5&#45;&gt;node25</title>
<path fill="none" stroke="black" stroke-width="1.69" d="M525.64,-323.95C538.09,-307.58 558.59,-284.07 582,-271 615.99,-252.02 628.57,-252 667.5,-252 667.5,-252 667.5,-252 831.5,-252 855.18,-252 881.17,-257.55 901.49,-263.2"/>
<polygon fill="black" stroke="black" stroke-width="1.69" points="900.69,-266.61 911.27,-266.04 902.65,-259.89 900.69,-266.61"/>
<text text-anchor="middle" x="722.5" y="-255.8" font-family="Times,serif" font-size="14.00">2</text>
</g>
<!-- node6 -->
<g id="node7" class="node">
<title>node6</title>
<polygon fill="lightblue" stroke="black" points="965.5,-366 911.5,-366 911.5,-330 965.5,-330 965.5,-366"/>
<text text-anchor="middle" x="938.5" y="-344.3" font-family="Times,serif" font-size="14.00">C3H3</text>
</g>
<!-- node7 -->
<g id="node8" class="node">
<title>node7</title>
<polygon fill="lightblue" stroke="black" points="857.5,-393 803.5,-393 803.5,-357 857.5,-357 857.5,-393"/>
<text text-anchor="middle" x="830.5" y="-371.3" font-family="Times,serif" font-size="14.00">C2H2</text>
</g>
<!-- node6&#45;&gt;node7 -->
<g id="edge5" class="edge">
<title>node6&#45;&gt;node7</title>
<path fill="none" stroke="black" stroke-width="2.1" d="M911.23,-338.02C901.57,-335.73 890.64,-334.79 881,-338 872.98,-340.67 865.21,-345.19 858.3,-350.18"/>
<polygon fill="black" stroke="black" stroke-width="2.1" points="855.76,-347.73 850.04,-356.65 860.07,-353.24 855.76,-347.73"/>
<text text-anchor="middle" x="884.5" y="-341.8" font-family="Times,serif" font-size="14.00">3</text>
</g>
<!-- node7&#45;&gt;node4 -->
<g id="edge14" class="edge">
<title>node7&#45;&gt;node4</title>
<path fill="none" stroke="black" d="M803.32,-388.8C795.94,-392.24 787.79,-395.62 780,-398 769.24,-401.29 766.17,-400.64 755,-402 636.5,-416.46 494.58,-412.77 429.21,-409.9"/>
<polygon fill="black" stroke="black" points="429.18,-406.39 419.03,-409.43 428.86,-413.38 429.18,-406.39"/>
<text text-anchor="middle" x="614.5" y="-416.8" font-family="Times,serif" font-size="14.00">1</text>
</g>
<!-- node7&#45;&gt;node5 -->
<g id="edge16" class="edge">
<title>node7&#45;&gt;node5</title>
<path fill="none" stroke="black" d="M803.37,-379.7C757.69,-386.98 660.69,-398.24 582,-379 570.36,-376.15 558.55,-370.88 548.07,-365.19"/>
<polygon fill="black" stroke="black" points="549.66,-362.06 539.24,-360.13 546.18,-368.14 549.66,-362.06"/>
<text text-anchor="middle" x="668.5" y="-393.8" font-family="Times,serif" font-size="14.00">1</text>
</g>
<!-- node7&#45;&gt;node6 -->
<g id="edge32" class="edge">
<title>node7&#45;&gt;node6</title>
<path fill="none" stroke="black" stroke-width="2.1" d="M857.7,-368.33C870.83,-364.98 886.92,-360.88 901.21,-357.24"/>
<polygon fill="black" stroke="black" stroke-width="2.1" points="902.41,-360.55 911.23,-354.69 900.68,-353.77 902.41,-360.55"/>
<text text-anchor="middle" x="884.5" y="-366.8" font-family="Times,serif" font-size="14.00">3</text>
</g>
<!-- node8 -->
<g id="node9" class="node">
<title>node8</title>
<polygon fill="lightblue" stroke="black" points="971,-431 906,-431 906,-395 971,-395 971,-431"/>
<text text-anchor="middle" x="938.5" y="-409.3" font-family="Times,serif" font-size="14.00">C3H3O1</text>
</g>
<!-- node7&#45;&gt;node8 -->
<g id="edge6" class="edge">
<title>node7&#45;&gt;node8</title>
<path fill="none" stroke="black" d="M857.7,-384.39C869.33,-388.56 883.29,-393.57 896.26,-398.22"/>
<polygon fill="black" stroke="black" points="895.34,-401.6 905.94,-401.68 897.7,-395.02 895.34,-401.6"/>
<text text-anchor="middle" x="884.5" y="-399.8" font-family="Times,serif" font-size="14.00">1</text>
</g>
<!-- node7&#45;&gt;node25 -->
<g id="edge47" class="edge">
<title>node7&#45;&gt;node25</title>
<path fill="none" stroke="black" d="M845.57,-356.95C855.03,-345.29 868.09,-330.1 881,-318 887.87,-311.56 895.67,-305.14 903.23,-299.29"/>
<polygon fill="black" stroke="black" points="905.42,-302.02 911.29,-293.2 901.2,-296.44 905.42,-302.02"/>
<text text-anchor="middle" x="884.5" y="-321.8" font-family="Times,serif" font-size="14.00">1</text>
</g>
<!-- node9 -->
<g id="node10" class="node">
<title>node9</title>
<polygon fill="lightblue" stroke="black" points="749.5,-356 695.5,-356 695.5,-320 749.5,-320 749.5,-356"/>
<text text-anchor="middle" x="722.5" y="-334.3" font-family="Times,serif" font-size="14.00">C4H2</text>
</g>
<!-- node9&#45;&gt;node7 -->
<g id="edge7" class="edge">
<title>node9&#45;&gt;node7</title>
<path fill="none" stroke="black" d="M749.7,-347.15C762.95,-351.77 779.24,-357.45 793.63,-362.48"/>
<polygon fill="black" stroke="black" points="792.64,-365.84 803.23,-365.83 794.94,-359.23 792.64,-365.84"/>
<text text-anchor="middle" x="776.5" y="-361.8" font-family="Times,serif" font-size="14.00">1</text>
</g>
<!-- node9&#45;&gt;node13 -->
<g id="edge42" class="edge">
<title>node9&#45;&gt;node13</title>
<path fill="none" stroke="black" d="M695.26,-327.46C685.7,-324.93 674.83,-323.57 665,-326 660.24,-327.17 655.44,-328.89 650.79,-330.9"/>
<polygon fill="black" stroke="black" points="649.03,-327.86 641.53,-335.34 652.06,-334.17 649.03,-327.86"/>
<text text-anchor="middle" x="668.5" y="-329.8" font-family="Times,serif" font-size="14.00">1</text>
</g>
<!-- node10 -->
<g id="node11" class="node">
<title>node10</title>
<polygon fill="lightblue" stroke="black" points="59.5,-772 5.5,-772 5.5,-736 59.5,-736 59.5,-772"/>
<text text-anchor="middle" x="32.5" y="-750.3" font-family="Times,serif" font-size="14.00">H1N1</text>
</g>
<!-- node11 -->
<g id="node12" class="node">
<title>node11</title>
<polygon fill="lightblue" stroke="black" points="178,-772 124,-772 124,-736 178,-736 178,-772"/>
<text text-anchor="middle" x="151" y="-750.3" font-family="Times,serif" font-size="14.00">H2N1</text>
</g>
<!-- node10&#45;&gt;node11 -->
<g id="edge9" class="edge">
<title>node10&#45;&gt;node11</title>
<path fill="none" stroke="black" stroke-width="1.69" d="M59.64,-754C75.53,-754 96.06,-754 113.53,-754"/>
<polygon fill="black" stroke="black" stroke-width="1.69" points="113.94,-757.5 123.94,-754 113.94,-750.5 113.94,-757.5"/>
<text text-anchor="middle" x="86.5" y="-757.8" font-family="Times,serif" font-size="14.00">2</text>
</g>
<!-- node12 -->
<g id="node13" class="node">
<title>node12</title>
<polygon fill="lightblue" stroke="black" points="298.5,-779 244.5,-779 244.5,-743 298.5,-743 298.5,-779"/>
<text text-anchor="middle" x="271.5" y="-757.3" font-family="Times,serif" font-size="14.00">H3N1</text>
</g>
<!-- node11&#45;&gt;node12 -->
<g id="edge12" class="edge">
<title>node11&#45;&gt;node12</title>
<path fill="none" stroke="black" stroke-width="2.39" d="M178.01,-755.54C194.41,-756.51 215.84,-757.77 233.94,-758.84"/>
<polygon fill="black" stroke="black" stroke-width="2.39" points="233.96,-762.35 244.15,-759.44 234.37,-755.36 233.96,-762.35"/>
<text text-anchor="middle" x="215.5" y="-761.8" font-family="Times,serif" font-size="14.00">4</text>
</g>
<!-- node12&#45;&gt;node11 -->
<g id="edge15" class="edge">
<title>node12&#45;&gt;node11</title>
<path fill="none" stroke="black" stroke-width="2.1" d="M244.43,-747.46C236.48,-743.99 227.57,-740.75 219,-739 208.84,-736.92 197.85,-737.99 187.76,-740.3"/>
<polygon fill="black" stroke="black" stroke-width="2.1" points="186.76,-736.95 178.04,-742.96 188.61,-743.7 186.76,-736.95"/>
<text text-anchor="middle" x="215.5" y="-742.8" font-family="Times,serif" font-size="14.00">3</text>
</g>
<!-- node13&#45;&gt;node9 -->
<g id="edge21" class="edge">
<title>node13&#45;&gt;node9</title>
<path fill="none" stroke="black" d="M641.7,-348.54C654.83,-346.81 670.92,-344.68 685.21,-342.79"/>
<polygon fill="black" stroke="black" points="685.78,-346.25 695.23,-341.47 684.86,-339.31 685.78,-346.25"/>
<text text-anchor="middle" x="668.5" y="-349.8" font-family="Times,serif" font-size="14.00">1</text>
</g>
<!-- node14&#45;&gt;node19 -->
<g id="edge36" class="edge">
<title>node14&#45;&gt;node19</title>
<path fill="none" stroke="black" stroke-width="1.69" d="M689.87,-526.03C681.35,-528.56 672.44,-532.1 665,-537 652.28,-545.38 641.07,-557.99 632.56,-569.41"/>
<polygon fill="black" stroke="black" stroke-width="1.69" points="629.52,-567.63 626.59,-577.81 635.23,-571.68 629.52,-567.63"/>
<text text-anchor="middle" x="668.5" y="-540.8" font-family="Times,serif" font-size="14.00">2</text>
</g>
<!-- node26 -->
<g id="node27" class="node">
<title>node26</title>
<polygon fill="lightblue" stroke="black" points="863,-538 798,-538 798,-502 863,-502 863,-538"/>
<text text-anchor="middle" x="830.5" y="-516.3" font-family="Times,serif" font-size="14.00">C3H2O1</text>
</g>
<!-- node14&#45;&gt;node26 -->
<g id="edge29" class="edge">
<title>node14&#45;&gt;node26</title>
<path fill="none" stroke="black" d="M755.02,-520C765.28,-520 776.84,-520 787.74,-520"/>
<polygon fill="black" stroke="black" points="787.92,-523.5 797.92,-520 787.92,-516.5 787.92,-523.5"/>
<text text-anchor="middle" x="776.5" y="-523.8" font-family="Times,serif" font-size="14.00">1</text>
</g>
<!-- node15 -->
<g id="node16" class="node">
<title>node15</title>
<polygon fill="lightblue" stroke="black" points="65,-826 0,-826 0,-790 65,-790 65,-826"/>
<text text-anchor="middle" x="32.5" y="-804.3" font-family="Times,serif" font-size="14.00">C2H2N1</text>
</g>
<!-- node16 -->
<g id="node17" class="node">
<title>node16</title>
<polygon fill="lightblue" stroke="black" points="192,-826 110,-826 110,-790 192,-790 192,-826"/>
<text text-anchor="middle" x="151" y="-804.3" font-family="Times,serif" font-size="14.00">C2H3O1N1</text>
</g>
<!-- node15&#45;&gt;node16 -->
<g id="edge18" class="edge">
<title>node15&#45;&gt;node16</title>
<path fill="none" stroke="black" d="M65.03,-808C75.66,-808 87.81,-808 99.53,-808"/>
<polygon fill="black" stroke="black" points="99.67,-811.5 109.67,-808 99.67,-804.5 99.67,-811.5"/>
<text text-anchor="middle" x="86.5" y="-811.8" font-family="Times,serif" font-size="14.00">1</text>
</g>
<!-- node17 -->
<g id="node18" class="node">
<title>node17</title>
<polygon fill="lightblue" stroke="black" points="304,-252 239,-252 239,-216 304,-216 304,-252"/>
<text text-anchor="middle" x="271.5" y="-230.3" font-family="Times,serif" font-size="14.00">C5H3O1</text>
</g>
<!-- node18 -->
<g id="node19" class="node">
<title>node18</title>
<polygon fill="lightblue" stroke="black" points="424.5,-225 359.5,-225 359.5,-189 424.5,-189 424.5,-225"/>
<text text-anchor="middle" x="392" y="-203.3" font-family="Times,serif" font-size="14.00">C4H2O1</text>
</g>
<!-- node17&#45;&gt;node18 -->
<g id="edge20" class="edge">
<title>node17&#45;&gt;node18</title>
<path fill="none" stroke="black" d="M304.26,-226.76C318.07,-223.62 334.45,-219.89 349.23,-216.52"/>
<polygon fill="black" stroke="black" points="350.18,-219.89 359.16,-214.26 348.63,-213.06 350.18,-219.89"/>
<text text-anchor="middle" x="327.5" y="-226.8" font-family="Times,serif" font-size="14.00">1</text>
</g>
<!-- node19&#45;&gt;node1 -->
<g id="edge41" class="edge">
<title>node19&#45;&gt;node1</title>
<path fill="none" stroke="black" d="M636.95,-614.01C652.79,-627.31 674.55,-645.58 692.03,-660.25"/>
<polygon fill="black" stroke="black" points="689.81,-662.96 699.72,-666.71 694.31,-657.6 689.81,-662.96"/>
<text text-anchor="middle" x="668.5" y="-647.8" font-family="Times,serif" font-size="14.00">1</text>
</g>
<!-- node19&#45;&gt;node3 -->
<g id="edge45" class="edge">
<title>node19&#45;&gt;node3</title>
<path fill="none" stroke="black" d="M597.02,-577.87C588.16,-569.48 576.5,-560.42 564,-556 559.39,-554.37 554.39,-553.53 549.39,-553.23"/>
<polygon fill="black" stroke="black" points="549.24,-549.73 539.25,-553.26 549.26,-556.73 549.24,-549.73"/>
<text text-anchor="middle" x="560.5" y="-559.8" font-family="Times,serif" font-size="14.00">1</text>
</g>
<!-- node19&#45;&gt;node14 -->
<g id="edge22" class="edge">
<title>node19&#45;&gt;node14</title>
<path fill="none" stroke="black" stroke-width="2.39" d="M640.62,-577.99C654.77,-567.84 672.64,-555.03 687.97,-544.04"/>
<polygon fill="black" stroke="black" stroke-width="2.39" points="690.1,-546.82 696.19,-538.15 686.03,-541.13 690.1,-546.82"/>
<text text-anchor="middle" x="668.5" y="-564.8" font-family="Times,serif" font-size="14.00">4</text>
</g>
<!-- node28 -->
<g id="node29" class="node">
<title>node28</title>
<polygon fill="lightblue" stroke="black" points="749.5,-638 695.5,-638 695.5,-602 749.5,-602 749.5,-638"/>
<text text-anchor="middle" x="722.5" y="-616.3" font-family="Times,serif" font-size="14.00">H1O1</text>
</g>
<!-- node19&#45;&gt;node28 -->
<g id="edge44" class="edge">
<title>node19&#45;&gt;node28</title>
<path fill="none" stroke="black" stroke-width="1.69" d="M647.21,-590.98C655.38,-590.59 664.1,-590.99 672,-593 676.73,-594.21 681.5,-595.97 686.11,-598.02"/>
<polygon fill="black" stroke="black" stroke-width="1.69" points="684.77,-601.26 695.28,-602.56 687.87,-594.99 684.77,-601.26"/>
<text text-anchor="middle" x="668.5" y="-596.8" font-family="Times,serif" font-size="14.00">2</text>
</g>
<!-- node20&#45;&gt;node0 -->
<g id="edge23" class="edge">
<title>node20&#45;&gt;node0</title>
<path fill="none" stroke="black" stroke-width="2.1" d="M238.93,-169.36C232.41,-167.57 225.54,-165.98 219,-165 209.1,-163.51 198.28,-162.91 188.28,-162.77"/>
<polygon fill="black" stroke="black" stroke-width="2.1" points="188.22,-159.27 178.22,-162.77 188.22,-166.27 188.22,-159.27"/>
<text text-anchor="middle" x="215.5" y="-168.8" font-family="Times,serif" font-size="14.00">3</text>
</g>
<!-- node20&#45;&gt;node18 -->
<g id="edge33" class="edge">
<title>node20&#45;&gt;node18</title>
<path fill="none" stroke="black" d="M304.26,-187.24C318.07,-190.38 334.45,-194.11 349.23,-197.48"/>
<polygon fill="black" stroke="black" points="348.63,-200.94 359.16,-199.74 350.18,-194.11 348.63,-200.94"/>
<text text-anchor="middle" x="327.5" y="-196.8" font-family="Times,serif" font-size="14.00">1</text>
</g>
<!-- node33 -->
<g id="node34" class="node">
<title>node33</title>
<polygon fill="lightblue" stroke="black" points="435,-168 349,-168 349,-132 435,-132 435,-168"/>
<text text-anchor="middle" x="392" y="-146.3" font-family="Times,serif" font-size="14.00">C3H1O1Fe1</text>
</g>
<!-- node20&#45;&gt;node33 -->
<g id="edge39" class="edge">
<title>node20&#45;&gt;node33</title>
<path fill="none" stroke="black" d="M304.26,-171.96C314.97,-169.25 327.22,-166.15 339.08,-163.15"/>
<polygon fill="black" stroke="black" points="340.06,-166.51 348.9,-160.66 338.34,-159.72 340.06,-166.51"/>
<text text-anchor="middle" x="327.5" y="-170.8" font-family="Times,serif" font-size="14.00">1</text>
</g>
<!-- node22 -->
<g id="node23" class="node">
<title>node22</title>
<polygon fill="lightblue" stroke="black" points="65,-880 0,-880 0,-844 65,-844 65,-880"/>
<text text-anchor="middle" x="32.5" y="-858.3" font-family="Times,serif" font-size="14.00">C2H3N1</text>
</g>
<!-- node23 -->
<g id="node24" class="node">
<title>node23</title>
<polygon fill="lightblue" stroke="black" points="183.5,-880 118.5,-880 118.5,-844 183.5,-844 183.5,-880"/>
<text text-anchor="middle" x="151" y="-858.3" font-family="Times,serif" font-size="14.00">C1H2N1</text>
</g>
<!-- node22&#45;&gt;node23 -->
<g id="edge26" class="edge">
<title>node22&#45;&gt;node23</title>
<path fill="none" stroke="black" d="M65.03,-862C78.37,-862 94.09,-862 108.37,-862"/>
<polygon fill="black" stroke="black" points="108.45,-865.5 118.45,-862 108.45,-858.5 108.45,-865.5"/>
<text text-anchor="middle" x="86.5" y="-865.8" font-family="Times,serif" font-size="14.00">1</text>
</g>
<!-- node24 -->
<g id="node25" class="node">
<title>node24</title>
<polygon fill="lightblue" stroke="black" points="59.5,-182 5.5,-182 5.5,-146 59.5,-146 59.5,-182"/>
<text text-anchor="middle" x="32.5" y="-160.3" font-family="Times,serif" font-size="14.00">C3O1</text>
</g>
<!-- node24&#45;&gt;node0 -->
<g id="edge27" class="edge">
<title>node24&#45;&gt;node0</title>
<path fill="none" stroke="black" d="M59.64,-164C75.53,-164 96.06,-164 113.53,-164"/>
<polygon fill="black" stroke="black" points="113.94,-167.5 123.94,-164 113.94,-160.5 113.94,-167.5"/>
<text text-anchor="middle" x="86.5" y="-167.8" font-family="Times,serif" font-size="14.00">1</text>
</g>
<!-- node27 -->
<g id="node28" class="node">
<title>node27</title>
<polygon fill="lightblue" stroke="black" points="641.5,-316 587.5,-316 587.5,-280 641.5,-280 641.5,-316"/>
<text text-anchor="middle" x="614.5" y="-294.3" font-family="Times,serif" font-size="14.00">C5H3</text>
</g>
<!-- node27&#45;&gt;node9 -->
<g id="edge30" class="edge">
<title>node27&#45;&gt;node9</title>
<path fill="none" stroke="black" d="M641.68,-299.33C651.43,-300.44 662.44,-302.43 672,-306 677.98,-308.23 683.98,-311.27 689.64,-314.6"/>
<polygon fill="black" stroke="black" points="687.87,-317.62 698.2,-319.98 691.6,-311.7 687.87,-317.62"/>
<text text-anchor="middle" x="668.5" y="-309.8" font-family="Times,serif" font-size="14.00">1</text>
</g>
<!-- node28&#45;&gt;node19 -->
<g id="edge34" class="edge">
<title>node28&#45;&gt;node19</title>
<path fill="none" stroke="black" stroke-width="1.69" d="M695.45,-617.26C685.82,-616 674.85,-614.27 665,-612 662.37,-611.39 659.68,-610.71 656.97,-609.98"/>
<polygon fill="black" stroke="black" stroke-width="1.69" points="657.81,-606.57 647.23,-607.14 655.85,-613.3 657.81,-606.57"/>
<text text-anchor="middle" x="668.5" y="-617.8" font-family="Times,serif" font-size="14.00">2</text>
</g>
<!-- node29 -->
<g id="node30" class="node">
<title>node29</title>
<polygon fill="lightblue" stroke="black" points="424.5,-320 359.5,-320 359.5,-284 424.5,-284 424.5,-320"/>
<text text-anchor="middle" x="392" y="-298.3" font-family="Times,serif" font-size="14.00">C4H4O1</text>
</g>
<!-- node29&#45;&gt;node5 -->
<g id="edge35" class="edge">
<title>node29&#45;&gt;node5</title>
<path fill="none" stroke="black" d="M424.53,-297.64C438.02,-296.98 453.7,-297.85 467,-303 474.76,-306.01 482.05,-311.06 488.37,-316.54"/>
<polygon fill="black" stroke="black" points="486.16,-319.27 495.82,-323.6 490.97,-314.18 486.16,-319.27"/>
<text text-anchor="middle" x="460" y="-306.8" font-family="Times,serif" font-size="14.00">1</text>
</g>
<!-- node30 -->
<g id="node31" class="node">
<title>node30</title>
<polygon fill="lightblue" stroke="black" points="65,-934 0,-934 0,-898 65,-898 65,-934"/>
<text text-anchor="middle" x="32.5" y="-912.3" font-family="Times,serif" font-size="14.00">C3H5N2</text>
</g>
<!-- node31 -->
<g id="node32" class="node">
<title>node31</title>
<polygon fill="lightblue" stroke="black" points="183.5,-934 118.5,-934 118.5,-898 183.5,-898 183.5,-934"/>
<text text-anchor="middle" x="151" y="-912.3" font-family="Times,serif" font-size="14.00">C3H2N1</text>
</g>
<!-- node30&#45;&gt;node31 -->
<g id="edge37" class="edge">
<title>node30&#45;&gt;node31</title>
<path fill="none" stroke="black" d="M65.03,-916C78.37,-916 94.09,-916 108.37,-916"/>
<polygon fill="black" stroke="black" points="108.45,-919.5 118.45,-916 108.45,-912.5 108.45,-919.5"/>
<text text-anchor="middle" x="86.5" y="-919.8" font-family="Times,serif" font-size="14.00">1</text>
</g>
<!-- node34 -->
<g id="node35" class="node">
<title>node34</title>
<polygon fill="lightblue" stroke="black" points="65,-988 0,-988 0,-952 65,-952 65,-988"/>
<text text-anchor="middle" x="32.5" y="-966.3" font-family="Times,serif" font-size="14.00">C2H2O2</text>
</g>
<!-- node35 -->
<g id="node36" class="node">
<title>node35</title>
<polygon fill="lightblue" stroke="black" points="194,-988 108,-988 108,-952 194,-952 194,-988"/>
<text text-anchor="middle" x="151" y="-966.3" font-family="Times,serif" font-size="14.00">C2H2O2Fe1</text>
</g>
<!-- node34&#45;&gt;node35 -->
<g id="edge40" class="edge">
<title>node34&#45;&gt;node35</title>
<path fill="none" stroke="black" d="M65.03,-970C75.14,-970 86.62,-970 97.81,-970"/>
<polygon fill="black" stroke="black" points="97.94,-973.5 107.94,-970 97.94,-966.5 97.94,-973.5"/>
<text text-anchor="middle" x="86.5" y="-973.8" font-family="Times,serif" font-size="14.00">1</text>
</g>
<!-- node37 -->
<g id="node38" class="node">
<title>node37</title>
<polygon fill="lightblue" stroke="black" points="65,-1042 0,-1042 0,-1006 65,-1006 65,-1042"/>
<text text-anchor="middle" x="32.5" y="-1020.3" font-family="Times,serif" font-size="14.00">C3H4O2</text>
</g>
<!-- node38 -->
<g id="node39" class="node">
<title>node38</title>
<polygon fill="lightblue" stroke="black" points="183.5,-1042 118.5,-1042 118.5,-1006 183.5,-1006 183.5,-1042"/>
<text text-anchor="middle" x="151" y="-1020.3" font-family="Times,serif" font-size="14.00">C1H2O2</text>
</g>
<!-- node37&#45;&gt;node38 -->
<g id="edge46" class="edge">
<title>node37&#45;&gt;node38</title>
<path fill="none" stroke="black" d="M65.03,-1024C78.37,-1024 94.09,-1024 108.37,-1024"/>
<polygon fill="black" stroke="black" points="108.45,-1027.5 118.45,-1024 108.45,-1020.5 108.45,-1027.5"/>
<text text-anchor="middle" x="86.5" y="-1027.8" font-family="Times,serif" font-size="14.00">1</text>
</g>
<!-- node39 -->
<g id="node40" class="node">
<title>node39</title>
<polygon fill="lightblue" stroke="black" points="298.5,-316 244.5,-316 244.5,-280 298.5,-280 298.5,-316"/>
<text text-anchor="middle" x="271.5" y="-294.3" font-family="Times,serif" font-size="14.00">C4H1</text>
</g>
<!-- node39&#45;&gt;node4 -->
<g id="edge49" class="edge">
<title>node39&#45;&gt;node4</title>
<path fill="none" stroke="black" d="M292.07,-316.16C311.71,-334.4 342.12,-362.62 364.04,-382.97"/>
<polygon fill="black" stroke="black" points="361.69,-385.57 371.4,-389.81 366.46,-380.44 361.69,-385.57"/>
<text text-anchor="middle" x="327.5" y="-353.8" font-family="Times,serif" font-size="14.00">1</text>
</g>
<!-- node39&#45;&gt;node13 -->
<g id="edge48" class="edge">
<title>node39&#45;&gt;node13</title>
<path fill="none" stroke="black" d="M298.62,-288.08C313.21,-283.07 331.85,-277.52 349,-275 386.82,-269.44 396.94,-271.46 435,-275 488.21,-279.95 543.89,-308.23 578.63,-329.1"/>
<polygon fill="black" stroke="black" points="577.06,-332.24 587.42,-334.49 580.72,-326.28 577.06,-332.24"/>
<text text-anchor="middle" x="460" y="-284.8" font-family="Times,serif" font-size="14.00">1</text>
</g>
</g>
</svg>
